<svg xmlns="http://www.w3.org/2000/svg" xmlns:xlink="http://www.w3.org/1999/xlink" viewBox="0 0 1366 768"><defs><style>.cls-1,.cls-10,.cls-100,.cls-101,.cls-102,.cls-103,.cls-104,.cls-11,.cls-110,.cls-111,.cls-112,.cls-113,.cls-115,.cls-117,.cls-12,.cls-126,.cls-128,.cls-13,.cls-131,.cls-14,.cls-15,.cls-16,.cls-17,.cls-18,.cls-19,.cls-2,.cls-20,.cls-21,.cls-22,.cls-23,.cls-24,.cls-25,.cls-26,.cls-27,.cls-28,.cls-29,.cls-3,.cls-30,.cls-31,.cls-32,.cls-33,.cls-34,.cls-35,.cls-36,.cls-37,.cls-38,.cls-39,.cls-4,.cls-40,.cls-41,.cls-42,.cls-43,.cls-44,.cls-45,.cls-46,.cls-47,.cls-48,.cls-49,.cls-5,.cls-50,.cls-51,.cls-52,.cls-53,.cls-54,.cls-55,.cls-56,.cls-57,.cls-58,.cls-59,.cls-6,.cls-60,.cls-61,.cls-62,.cls-63,.cls-64,.cls-65,.cls-66,.cls-67,.cls-68,.cls-69,.cls-7,.cls-70,.cls-71,.cls-72,.cls-73,.cls-74,.cls-75,.cls-76,.cls-77,.cls-78,.cls-79,.cls-8,.cls-80,.cls-81,.cls-82,.cls-83,.cls-84,.cls-85,.cls-86,.cls-87,.cls-88,.cls-89,.cls-9,.cls-90,.cls-91,.cls-92,.cls-93,.cls-94,.cls-95,.cls-96,.cls-97,.cls-98{fill:none;}.cls-10,.cls-101,.cls-11,.cls-110,.cls-111,.cls-112,.cls-113,.cls-115,.cls-12,.cls-126,.cls-129,.cls-13,.cls-130,.cls-131,.cls-14,.cls-15,.cls-16,.cls-17,.cls-18,.cls-19,.cls-2,.cls-20,.cls-21,.cls-22,.cls-23,.cls-24,.cls-25,.cls-26,.cls-27,.cls-28,.cls-29,.cls-3,.cls-30,.cls-31,.cls-32,.cls-33,.cls-34,.cls-35,.cls-36,.cls-37,.cls-38,.cls-39,.cls-4,.cls-40,.cls-41,.cls-42,.cls-43,.cls-44,.cls-45,.cls-46,.cls-47,.cls-48,.cls-49,.cls-5,.cls-50,.cls-51,.cls-52,.cls-53,.cls-54,.cls-55,.cls-56,.cls-57,.cls-58,.cls-59,.cls-6,.cls-60,.cls-61,.cls-62,.cls-63,.cls-64,.cls-65,.cls-66,.cls-67,.cls-68,.cls-69,.cls-7,.cls-70,.cls-71,.cls-72,.cls-73,.cls-74,.cls-75,.cls-76,.cls-77,.cls-78,.cls-79,.cls-8,.cls-80,.cls-81,.cls-82,.cls-83,.cls-84,.cls-85,.cls-86,.cls-87,.cls-88,.cls-89,.cls-9,.cls-90,.cls-91,.cls-92,.cls-93,.cls-94,.cls-95,.cls-96,.cls-97,.cls-98{stroke:#364591;}.cls-10,.cls-11,.cls-12,.cls-13,.cls-14,.cls-15,.cls-16,.cls-17,.cls-18,.cls-19,.cls-2,.cls-20,.cls-21,.cls-22,.cls-23,.cls-24,.cls-25,.cls-26,.cls-27,.cls-28,.cls-29,.cls-3,.cls-30,.cls-31,.cls-32,.cls-33,.cls-34,.cls-35,.cls-36,.cls-37,.cls-38,.cls-39,.cls-4,.cls-40,.cls-41,.cls-42,.cls-43,.cls-44,.cls-45,.cls-46,.cls-47,.cls-48,.cls-49,.cls-5,.cls-50,.cls-51,.cls-52,.cls-53,.cls-54,.cls-55,.cls-56,.cls-57,.cls-58,.cls-59,.cls-6,.cls-60,.cls-61,.cls-62,.cls-63,.cls-64,.cls-65,.cls-66,.cls-67,.cls-68,.cls-69,.cls-7,.cls-70,.cls-71,.cls-72,.cls-73,.cls-74,.cls-75,.cls-76,.cls-77,.cls-78,.cls-79,.cls-8,.cls-80,.cls-81,.cls-82,.cls-83,.cls-84,.cls-85,.cls-86,.cls-87,.cls-88,.cls-89,.cls-9,.cls-90,.cls-91,.cls-92,.cls-93,.cls-94,.cls-95,.cls-96,.cls-97,.cls-98{stroke-linecap:round;stroke-dasharray:0 14.6;}.cls-2{stroke-width:7.3px;}.cls-3{stroke-width:0.44px;}.cls-4{stroke-width:0.59px;}.cls-5{stroke-width:0.73px;}.cls-6{stroke-width:0.88px;}.cls-7{stroke-width:1.02px;}.cls-8{stroke-width:1.17px;}.cls-9{stroke-width:1.31px;}.cls-10{stroke-width:1.46px;}.cls-11{stroke-width:1.6px;}.cls-12{stroke-width:1.74px;}.cls-13{stroke-width:1.89px;}.cls-14{stroke-width:2.03px;}.cls-15{stroke-width:2.18px;}.cls-16{stroke-width:2.32px;}.cls-17{stroke-width:2.47px;}.cls-18{stroke-width:2.61px;}.cls-19{stroke-width:2.75px;}.cls-20{stroke-width:2.9px;}.cls-21{stroke-width:3.04px;}.cls-22{stroke-width:3.19px;}.cls-23{stroke-width:3.33px;}.cls-24{stroke-width:3.48px;}.cls-25{stroke-width:3.62px;}.cls-26{stroke-width:3.77px;}.cls-27{stroke-width:3.91px;}.cls-28{stroke-width:4.05px;}.cls-29{stroke-width:4.2px;}.cls-30{stroke-width:4.34px;}.cls-31{stroke-width:4.49px;}.cls-32{stroke-width:4.63px;}.cls-33{stroke-width:4.78px;}.cls-34{stroke-width:4.92px;}.cls-35{stroke-width:5.07px;}.cls-36{stroke-width:5.21px;}.cls-37{stroke-width:5.35px;}.cls-38{stroke-width:5.5px;}.cls-39{stroke-width:5.64px;}.cls-40{stroke-width:5.79px;}.cls-41{stroke-width:5.93px;}.cls-42{stroke-width:6.08px;}.cls-43{stroke-width:6.22px;}.cls-44{stroke-width:6.37px;}.cls-45{stroke-width:6.51px;}.cls-46{stroke-width:6.65px;}.cls-47{stroke-width:6.8px;}.cls-48{stroke-width:6.94px;}.cls-49{stroke-width:7.09px;}.cls-50{stroke-width:7.23px;}.cls-51{stroke-width:0.37px;}.cls-52{stroke-width:0.52px;}.cls-53{stroke-width:0.66px;}.cls-54{stroke-width:0.81px;}.cls-55{stroke-width:0.95px;}.cls-56{stroke-width:1.09px;}.cls-57{stroke-width:1.24px;}.cls-58{stroke-width:1.38px;}.cls-59{stroke-width:1.53px;}.cls-60{stroke-width:1.67px;}.cls-61{stroke-width:1.82px;}.cls-62{stroke-width:1.96px;}.cls-63{stroke-width:2.11px;}.cls-64{stroke-width:2.25px;}.cls-65{stroke-width:2.39px;}.cls-66{stroke-width:2.54px;}.cls-67{stroke-width:2.68px;}.cls-68{stroke-width:2.83px;}.cls-69{stroke-width:2.97px;}.cls-70{stroke-width:3.12px;}.cls-71{stroke-width:3.26px;}.cls-72{stroke-width:3.4px;}.cls-73{stroke-width:3.55px;}.cls-74{stroke-width:3.69px;}.cls-75{stroke-width:3.84px;}.cls-76{stroke-width:3.98px;}.cls-77{stroke-width:4.13px;}.cls-78{stroke-width:4.27px;}.cls-79{stroke-width:4.42px;}.cls-80{stroke-width:4.56px;}.cls-81{stroke-width:4.7px;}.cls-82{stroke-width:4.85px;}.cls-83{stroke-width:4.99px;}.cls-84{stroke-width:5.14px;}.cls-85{stroke-width:5.28px;}.cls-86{stroke-width:5.43px;}.cls-87{stroke-width:5.57px;}.cls-88{stroke-width:5.72px;}.cls-89{stroke-width:5.86px;}.cls-101,.cls-102,.cls-103,.cls-104,.cls-112,.cls-90{stroke-width:6px;}.cls-91{stroke-width:6.15px;}.cls-92{stroke-width:6.29px;}.cls-93{stroke-width:6.44px;}.cls-94{stroke-width:6.58px;}.cls-95{stroke-width:6.73px;}.cls-96{stroke-width:6.87px;}.cls-97{stroke-width:7.01px;}.cls-98{stroke-width:7.16px;}.cls-99{fill:#364591;}.cls-100,.cls-103{stroke:#d6edec;}.cls-100{stroke-width:4.8px;}.cls-102,.cls-117,.cls-128{stroke:#f8f8f8;}.cls-104{stroke:#f9e4e4;}.cls-105,.cls-118,.cls-119{fill:#f8f8f8;}.cls-106,.cls-130{fill:#d6edec;}.cls-107,.cls-129{fill:#f9e4e4;}.cls-108{fill:url(#_6_lpi_40_2);}.cls-109{clip-path:url(#clip-path);}.cls-110,.cls-111,.cls-112,.cls-113,.cls-115,.cls-117,.cls-126,.cls-128,.cls-129,.cls-130,.cls-131{stroke-miterlimit:10;}.cls-110{stroke-width:9px;}.cls-111{stroke-width:8px;}.cls-113{stroke-width:5px;}.cls-114{fill:url(#_0_50_ドットグラデーション_2);}.cls-115,.cls-117,.cls-129,.cls-130{stroke-width:4px;}.cls-116{clip-path:url(#clip-path-2);}.cls-118{font-size:14px;}.cls-118,.cls-119{font-family:JosefinSans-Bold, Josefin Sans;font-weight:700;letter-spacing:0.25em;}.cls-119{font-size:21px;}.cls-120{fill:url(#_10_dpi_50_3);}.cls-121{fill:url(#_10_dpi_50_3-3);}.cls-122{fill:url(#_10_dpi_50_3-7);}.cls-123{clip-path:url(#clip-path-3);}.cls-124{fill:url(#_6_lpi_50_2);}.cls-125{clip-path:url(#clip-path-4);}.cls-126{stroke-width:20px;}.cls-127{fill:url(#_6_lpi_50_5);}.cls-128{stroke-width:3px;}.cls-131{stroke-width:10px;}.cls-132{fill:url(#_6_dpi_30_2);}.cls-133{fill:url(#_6_lpi_50_3);}.cls-134{fill:url(#_6_lpi_50_4);}.cls-135{fill:url(#_10_dpi_50_3-11);}.cls-136{fill:url(#_10_dpi_50_2);}</style><pattern id="_6_lpi_40_2" data-name="6 lpi 40% 2" width="72" height="72" patternTransform="matrix(0, 2.17, -0.66, 0, 64.94, -25.09)" patternUnits="userSpaceOnUse" viewBox="0 0 72 72"><rect class="cls-1" width="72" height="72"/><line class="cls-100" x1="71.75" y1="66" x2="144.25" y2="66"/><line class="cls-100" x1="71.75" y1="42" x2="144.25" y2="42"/><line class="cls-100" x1="71.75" y1="18" x2="144.25" y2="18"/><line class="cls-100" x1="71.75" y1="54" x2="144.25" y2="54"/><line class="cls-100" x1="71.75" y1="30" x2="144.25" y2="30"/><line class="cls-100" x1="71.75" y1="6" x2="144.25" y2="6"/><line class="cls-100" x1="-0.25" y1="66" x2="72.25" y2="66"/><line class="cls-100" x1="-0.25" y1="42" x2="72.25" y2="42"/><line class="cls-100" x1="-0.25" y1="18" x2="72.25" y2="18"/><line class="cls-100" x1="-0.25" y1="54" x2="72.25" y2="54"/><line class="cls-100" x1="-0.25" y1="30" x2="72.25" y2="30"/><line class="cls-100" x1="-0.25" y1="6" x2="72.25" y2="6"/><line class="cls-100" x1="-72.25" y1="66" x2="0.25" y2="66"/><line class="cls-100" x1="-72.25" y1="42" x2="0.25" y2="42"/><line class="cls-100" x1="-72.25" y1="18" x2="0.25" y2="18"/><line class="cls-100" x1="-72.25" y1="54" x2="0.25" y2="54"/><line class="cls-100" x1="-72.25" y1="30" x2="0.25" y2="30"/><line class="cls-100" x1="-72.25" y1="6" x2="0.25" y2="6"/></pattern><clipPath id="clip-path"><rect class="cls-1" x="785.5" y="325.5" width="245" height="326"/></clipPath><pattern id="_0_50_ドットグラデーション_2" data-name="0～50 % ドットグラデーション 2" width="145" height="705.81" patternUnits="userSpaceOnUse" viewBox="0 0 145 705.81"><rect class="cls-1" width="145" height="705.81"/><line class="cls-2" x1="130.5" y1="705.81" x2="176.5" y2="705.81"/><line class="cls-2" x1="101.5" y1="705.81" x2="147.5" y2="705.81"/><line class="cls-2" x1="72.5" y1="705.81" x2="118.5" y2="705.81"/><line class="cls-2" x1="43.5" y1="705.81" x2="89.5" y2="705.81"/><line class="cls-2" x1="14.5" y1="705.81" x2="60.5" y2="705.81"/><line class="cls-2" x1="-14.5" y1="705.81" x2="31.5" y2="705.81"/><line class="cls-2" x1="-43.5" y1="705.81" x2="2.5" y2="705.81"/><line class="cls-3" x1="137.8" y1="694.62" x2="183.8" y2="694.62"/><line class="cls-4" x1="137.8" y1="679.99" x2="183.8" y2="679.99"/><line class="cls-5" x1="137.8" y1="665.36" x2="183.8" y2="665.36"/><line class="cls-6" x1="137.8" y1="650.73" x2="183.8" y2="650.73"/><line class="cls-7" x1="137.8" y1="636.1" x2="183.8" y2="636.1"/><line class="cls-8" x1="137.8" y1="621.46" x2="183.8" y2="621.46"/><line class="cls-9" x1="137.8" y1="606.83" x2="183.8" y2="606.83"/><line class="cls-10" x1="137.8" y1="592.2" x2="183.8" y2="592.2"/><line class="cls-11" x1="137.8" y1="577.57" x2="183.8" y2="577.57"/><line class="cls-12" x1="137.8" y1="562.94" x2="183.8" y2="562.94"/><line class="cls-13" x1="137.8" y1="548.31" x2="183.8" y2="548.31"/><line class="cls-14" x1="137.8" y1="533.67" x2="183.8" y2="533.67"/><line class="cls-15" x1="137.8" y1="519.04" x2="183.8" y2="519.04"/><line class="cls-16" x1="137.8" y1="504.41" x2="183.8" y2="504.41"/><line class="cls-17" x1="137.8" y1="489.78" x2="183.8" y2="489.78"/><line class="cls-18" x1="137.8" y1="475.15" x2="183.8" y2="475.15"/><line class="cls-19" x1="137.8" y1="460.51" x2="183.8" y2="460.51"/><line class="cls-20" x1="137.8" y1="445.88" x2="183.8" y2="445.88"/><line class="cls-21" x1="137.8" y1="431.25" x2="183.8" y2="431.25"/><line class="cls-22" x1="137.8" y1="416.62" x2="183.8" y2="416.62"/><line class="cls-23" x1="137.8" y1="401.99" x2="183.8" y2="401.99"/><line class="cls-24" x1="137.8" y1="387.36" x2="183.8" y2="387.36"/><line class="cls-25" x1="137.8" y1="372.72" x2="183.8" y2="372.72"/><line class="cls-26" x1="137.8" y1="358.09" x2="183.8" y2="358.09"/><line class="cls-27" x1="137.8" y1="343.46" x2="183.8" y2="343.46"/><line class="cls-28" x1="137.8" y1="328.83" x2="183.8" y2="328.83"/><line class="cls-29" x1="137.8" y1="314.2" x2="183.8" y2="314.2"/><line class="cls-30" x1="137.8" y1="299.56" x2="183.8" y2="299.56"/><line class="cls-31" x1="137.8" y1="284.93" x2="183.8" y2="284.93"/><line class="cls-32" x1="137.8" y1="270.3" x2="183.8" y2="270.3"/><line class="cls-33" x1="137.8" y1="255.67" x2="183.8" y2="255.67"/><line class="cls-34" x1="137.8" y1="241.04" x2="183.8" y2="241.04"/><line class="cls-35" x1="137.8" y1="226.4" x2="183.8" y2="226.4"/><line class="cls-36" x1="137.8" y1="211.77" x2="183.8" y2="211.77"/><line class="cls-37" x1="137.8" y1="197.14" x2="183.8" y2="197.14"/><line class="cls-38" x1="137.8" y1="182.51" x2="183.8" y2="182.51"/><line class="cls-39" x1="137.8" y1="167.88" x2="183.8" y2="167.88"/><line class="cls-40" x1="137.8" y1="153.25" x2="183.8" y2="153.25"/><line class="cls-41" x1="137.8" y1="138.61" x2="183.8" y2="138.61"/><line class="cls-42" x1="137.8" y1="123.98" x2="183.8" y2="123.98"/><line class="cls-43" x1="137.8" y1="109.35" x2="183.8" y2="109.35"/><line class="cls-44" x1="137.8" y1="94.72" x2="183.8" y2="94.72"/><line class="cls-45" x1="137.8" y1="80.09" x2="183.8" y2="80.09"/><line class="cls-46" x1="137.8" y1="65.45" x2="183.8" y2="65.45"/><line class="cls-47" x1="137.8" y1="50.82" x2="183.8" y2="50.82"/><line class="cls-48" x1="137.8" y1="36.19" x2="183.8" y2="36.19"/><line class="cls-49" x1="137.8" y1="21.56" x2="183.8" y2="21.56"/><line class="cls-50" x1="137.8" y1="6.93" x2="183.8" y2="6.93"/><line class="cls-51" x1="130.5" y1="701.94" x2="176.5" y2="701.94"/><line class="cls-52" x1="130.5" y1="687.31" x2="176.5" y2="687.31"/><line class="cls-53" x1="130.5" y1="672.68" x2="176.5" y2="672.68"/><line class="cls-54" x1="130.5" y1="658.04" x2="176.5" y2="658.04"/><line class="cls-55" x1="130.5" y1="643.41" x2="176.5" y2="643.41"/><line class="cls-56" x1="130.5" y1="628.78" x2="176.5" y2="628.78"/><line class="cls-57" x1="130.5" y1="614.15" x2="176.5" y2="614.15"/><line class="cls-58" x1="130.5" y1="599.52" x2="176.5" y2="599.52"/><line class="cls-59" x1="130.5" y1="584.88" x2="176.5" y2="584.88"/><line class="cls-60" x1="130.5" y1="570.25" x2="176.5" y2="570.25"/><line class="cls-61" x1="130.5" y1="555.62" x2="176.5" y2="555.62"/><line class="cls-62" x1="130.5" y1="540.99" x2="176.5" y2="540.99"/><line class="cls-63" x1="130.5" y1="526.36" x2="176.5" y2="526.36"/><line class="cls-64" x1="130.5" y1="511.73" x2="176.5" y2="511.73"/><line class="cls-65" x1="130.5" y1="497.09" x2="176.5" y2="497.09"/><line class="cls-66" x1="130.5" y1="482.46" x2="176.5" y2="482.46"/><line class="cls-67" x1="130.5" y1="467.83" x2="176.5" y2="467.83"/><line class="cls-68" x1="130.5" y1="453.2" x2="176.5" y2="453.2"/><line class="cls-69" x1="130.5" y1="438.57" x2="176.5" y2="438.57"/><line class="cls-70" x1="130.5" y1="423.93" x2="176.5" y2="423.93"/><line class="cls-71" x1="130.5" y1="409.3" x2="176.5" y2="409.3"/><line class="cls-72" x1="130.5" y1="394.67" x2="176.5" y2="394.67"/><line class="cls-73" x1="130.5" y1="380.04" x2="176.5" y2="380.04"/><line class="cls-74" x1="130.5" y1="365.41" x2="176.5" y2="365.41"/><line class="cls-75" x1="130.5" y1="350.78" x2="176.5" y2="350.78"/><line class="cls-76" x1="130.5" y1="336.14" x2="176.5" y2="336.14"/><line class="cls-77" x1="130.5" y1="321.51" x2="176.5" y2="321.51"/><line class="cls-78" x1="130.5" y1="306.88" x2="176.5" y2="306.88"/><line class="cls-79" x1="130.5" y1="292.25" x2="176.5" y2="292.25"/><line class="cls-80" x1="130.5" y1="277.62" x2="176.5" y2="277.62"/><line class="cls-81" x1="130.5" y1="262.98" x2="176.5" y2="262.98"/><line class="cls-82" x1="130.5" y1="248.35" x2="176.5" y2="248.35"/><line class="cls-83" x1="130.5" y1="233.72" x2="176.5" y2="233.72"/><line class="cls-84" x1="130.5" y1="219.09" x2="176.5" y2="219.09"/><line class="cls-85" x1="130.5" y1="204.46" x2="176.5" y2="204.46"/><line class="cls-86" x1="130.5" y1="189.83" x2="176.5" y2="189.83"/><line class="cls-87" x1="130.5" y1="175.19" x2="176.5" y2="175.19"/><line class="cls-88" x1="130.5" y1="160.56" x2="176.5" y2="160.56"/><line class="cls-89" x1="130.5" y1="145.93" x2="176.5" y2="145.93"/><line class="cls-90" x1="130.5" y1="131.3" x2="176.5" y2="131.3"/><line class="cls-91" x1="130.5" y1="116.67" x2="176.5" y2="116.67"/><line class="cls-92" x1="130.5" y1="102.03" x2="176.5" y2="102.03"/><line class="cls-93" x1="130.5" y1="87.4" x2="176.5" y2="87.4"/><line class="cls-94" x1="130.5" y1="72.77" x2="176.5" y2="72.77"/><line class="cls-95" x1="130.5" y1="58.14" x2="176.5" y2="58.14"/><line class="cls-96" x1="130.5" y1="43.51" x2="176.5" y2="43.51"/><line class="cls-97" x1="130.5" y1="28.88" x2="176.5" y2="28.88"/><line class="cls-98" x1="130.5" y1="14.24" x2="176.5" y2="14.24"/><line class="cls-2" x1="130.5" x2="176.5"/><line class="cls-3" x1="108.8" y1="694.62" x2="154.8" y2="694.62"/><line class="cls-4" x1="108.8" y1="679.99" x2="154.8" y2="679.99"/><line class="cls-5" x1="108.8" y1="665.36" x2="154.8" y2="665.36"/><line class="cls-6" x1="108.8" y1="650.73" x2="154.8" y2="650.73"/><line class="cls-7" x1="108.8" y1="636.1" x2="154.8" y2="636.1"/><line class="cls-8" x1="108.8" y1="621.46" x2="154.8" y2="621.46"/><line class="cls-9" x1="108.8" y1="606.83" x2="154.8" y2="606.83"/><line class="cls-10" x1="108.8" y1="592.2" x2="154.8" y2="592.2"/><line class="cls-11" x1="108.8" y1="577.57" x2="154.8" y2="577.57"/><line class="cls-12" x1="108.8" y1="562.94" x2="154.8" y2="562.94"/><line class="cls-13" x1="108.8" y1="548.31" x2="154.8" y2="548.31"/><line class="cls-14" x1="108.8" y1="533.67" x2="154.8" y2="533.67"/><line class="cls-15" x1="108.8" y1="519.04" x2="154.8" y2="519.04"/><line class="cls-16" x1="108.8" y1="504.41" x2="154.8" y2="504.41"/><line class="cls-17" x1="108.8" y1="489.78" x2="154.8" y2="489.78"/><line class="cls-18" x1="108.8" y1="475.15" x2="154.8" y2="475.15"/><line class="cls-19" x1="108.8" y1="460.51" x2="154.8" y2="460.51"/><line class="cls-20" x1="108.8" y1="445.88" x2="154.8" y2="445.88"/><line class="cls-21" x1="108.8" y1="431.25" x2="154.8" y2="431.25"/><line class="cls-22" x1="108.8" y1="416.62" x2="154.8" y2="416.62"/><line class="cls-23" x1="108.8" y1="401.99" x2="154.8" y2="401.99"/><line class="cls-24" x1="108.8" y1="387.36" x2="154.8" y2="387.36"/><line class="cls-25" x1="108.8" y1="372.72" x2="154.8" y2="372.72"/><line class="cls-26" x1="108.8" y1="358.09" x2="154.8" y2="358.09"/><line class="cls-27" x1="108.8" y1="343.46" x2="154.8" y2="343.46"/><line class="cls-28" x1="108.8" y1="328.83" x2="154.8" y2="328.83"/><line class="cls-29" x1="108.8" y1="314.2" x2="154.8" y2="314.2"/><line class="cls-30" x1="108.8" y1="299.56" x2="154.8" y2="299.56"/><line class="cls-31" x1="108.8" y1="284.93" x2="154.8" y2="284.93"/><line class="cls-32" x1="108.8" y1="270.3" x2="154.8" y2="270.3"/><line class="cls-33" x1="108.8" y1="255.67" x2="154.8" y2="255.67"/><line class="cls-34" x1="108.8" y1="241.04" x2="154.8" y2="241.04"/><line class="cls-35" x1="108.8" y1="226.4" x2="154.8" y2="226.4"/><line class="cls-36" x1="108.8" y1="211.77" x2="154.8" y2="211.77"/><line class="cls-37" x1="108.8" y1="197.14" x2="154.8" y2="197.14"/><line class="cls-38" x1="108.8" y1="182.51" x2="154.8" y2="182.51"/><line class="cls-39" x1="108.8" y1="167.88" x2="154.8" y2="167.88"/><line class="cls-40" x1="108.8" y1="153.25" x2="154.8" y2="153.25"/><line class="cls-41" x1="108.8" y1="138.61" x2="154.8" y2="138.61"/><line class="cls-42" x1="108.8" y1="123.98" x2="154.8" y2="123.98"/><line class="cls-43" x1="108.8" y1="109.35" x2="154.8" y2="109.35"/><line class="cls-44" x1="108.8" y1="94.72" x2="154.8" y2="94.72"/><line class="cls-45" x1="108.8" y1="80.09" x2="154.8" y2="80.09"/><line class="cls-46" x1="108.8" y1="65.45" x2="154.8" y2="65.45"/><line class="cls-47" x1="108.8" y1="50.82" x2="154.8" y2="50.82"/><line class="cls-48" x1="108.8" y1="36.19" x2="154.8" y2="36.19"/><line class="cls-49" x1="108.8" y1="21.56" x2="154.8" y2="21.56"/><line class="cls-50" x1="108.8" y1="6.93" x2="154.8" y2="6.93"/><line class="cls-51" x1="101.5" y1="701.94" x2="147.5" y2="701.94"/><line class="cls-52" x1="101.5" y1="687.31" x2="147.5" y2="687.31"/><line class="cls-53" x1="101.5" y1="672.68" x2="147.5" y2="672.68"/><line class="cls-54" x1="101.5" y1="658.04" x2="147.5" y2="658.04"/><line class="cls-55" x1="101.5" y1="643.41" x2="147.5" y2="643.41"/><line class="cls-56" x1="101.5" y1="628.78" x2="147.5" y2="628.78"/><line class="cls-57" x1="101.5" y1="614.15" x2="147.5" y2="614.15"/><line class="cls-58" x1="101.5" y1="599.52" x2="147.5" y2="599.52"/><line class="cls-59" x1="101.5" y1="584.88" x2="147.5" y2="584.88"/><line class="cls-60" x1="101.5" y1="570.25" x2="147.5" y2="570.25"/><line class="cls-61" x1="101.5" y1="555.62" x2="147.5" y2="555.62"/><line class="cls-62" x1="101.5" y1="540.99" x2="147.5" y2="540.99"/><line class="cls-63" x1="101.5" y1="526.36" x2="147.5" y2="526.36"/><line class="cls-64" x1="101.5" y1="511.73" x2="147.5" y2="511.73"/><line class="cls-65" x1="101.5" y1="497.09" x2="147.5" y2="497.09"/><line class="cls-66" x1="101.5" y1="482.46" x2="147.5" y2="482.46"/><line class="cls-67" x1="101.5" y1="467.83" x2="147.5" y2="467.83"/><line class="cls-68" x1="101.5" y1="453.2" x2="147.5" y2="453.2"/><line class="cls-69" x1="101.5" y1="438.57" x2="147.5" y2="438.57"/><line class="cls-70" x1="101.5" y1="423.93" x2="147.5" y2="423.93"/><line class="cls-71" x1="101.5" y1="409.3" x2="147.5" y2="409.3"/><line class="cls-72" x1="101.5" y1="394.67" x2="147.5" y2="394.67"/><line class="cls-73" x1="101.5" y1="380.04" x2="147.5" y2="380.04"/><line class="cls-74" x1="101.5" y1="365.41" x2="147.5" y2="365.41"/><line class="cls-75" x1="101.5" y1="350.78" x2="147.5" y2="350.78"/><line class="cls-76" x1="101.5" y1="336.14" x2="147.5" y2="336.14"/><line class="cls-77" x1="101.5" y1="321.51" x2="147.5" y2="321.51"/><line class="cls-78" x1="101.5" y1="306.88" x2="147.5" y2="306.88"/><line class="cls-79" x1="101.5" y1="292.25" x2="147.5" y2="292.25"/><line class="cls-80" x1="101.5" y1="277.62" x2="147.5" y2="277.62"/><line class="cls-81" x1="101.5" y1="262.98" x2="147.5" y2="262.98"/><line class="cls-82" x1="101.5" y1="248.35" x2="147.5" y2="248.35"/><line class="cls-83" x1="101.5" y1="233.72" x2="147.5" y2="233.72"/><line class="cls-84" x1="101.5" y1="219.09" x2="147.5" y2="219.09"/><line class="cls-85" x1="101.5" y1="204.46" x2="147.5" y2="204.46"/><line class="cls-86" x1="101.5" y1="189.83" x2="147.5" y2="189.83"/><line class="cls-87" x1="101.5" y1="175.19" x2="147.5" y2="175.19"/><line class="cls-88" x1="101.5" y1="160.56" x2="147.5" y2="160.56"/><line class="cls-89" x1="101.5" y1="145.93" x2="147.5" y2="145.93"/><line class="cls-90" x1="101.5" y1="131.3" x2="147.5" y2="131.3"/><line class="cls-91" x1="101.5" y1="116.67" x2="147.5" y2="116.67"/><line class="cls-92" x1="101.5" y1="102.03" x2="147.5" y2="102.03"/><line class="cls-93" x1="101.5" y1="87.4" x2="147.5" y2="87.4"/><line class="cls-94" x1="101.5" y1="72.77" x2="147.5" y2="72.77"/><line class="cls-95" x1="101.5" y1="58.14" x2="147.5" y2="58.14"/><line class="cls-96" x1="101.5" y1="43.51" x2="147.5" y2="43.51"/><line class="cls-97" x1="101.5" y1="28.88" x2="147.5" y2="28.88"/><line class="cls-98" x1="101.5" y1="14.24" x2="147.5" y2="14.24"/><line class="cls-2" x1="101.5" x2="147.5"/><line class="cls-3" x1="79.8" y1="694.62" x2="125.8" y2="694.62"/><line class="cls-4" x1="79.8" y1="679.99" x2="125.8" y2="679.99"/><line class="cls-5" x1="79.8" y1="665.36" x2="125.8" y2="665.36"/><line class="cls-6" x1="79.8" y1="650.73" x2="125.8" y2="650.73"/><line class="cls-7" x1="79.8" y1="636.1" x2="125.8" y2="636.1"/><line class="cls-8" x1="79.8" y1="621.46" x2="125.8" y2="621.46"/><line class="cls-9" x1="79.8" y1="606.83" x2="125.8" y2="606.83"/><line class="cls-10" x1="79.8" y1="592.2" x2="125.8" y2="592.2"/><line class="cls-11" x1="79.8" y1="577.57" x2="125.8" y2="577.57"/><line class="cls-12" x1="79.8" y1="562.94" x2="125.8" y2="562.94"/><line class="cls-13" x1="79.8" y1="548.31" x2="125.8" y2="548.31"/><line class="cls-14" x1="79.8" y1="533.67" x2="125.8" y2="533.67"/><line class="cls-15" x1="79.8" y1="519.04" x2="125.8" y2="519.04"/><line class="cls-16" x1="79.8" y1="504.41" x2="125.8" y2="504.41"/><line class="cls-17" x1="79.8" y1="489.78" x2="125.8" y2="489.78"/><line class="cls-18" x1="79.8" y1="475.15" x2="125.8" y2="475.15"/><line class="cls-19" x1="79.8" y1="460.51" x2="125.8" y2="460.51"/><line class="cls-20" x1="79.8" y1="445.88" x2="125.8" y2="445.88"/><line class="cls-21" x1="79.8" y1="431.25" x2="125.8" y2="431.25"/><line class="cls-22" x1="79.8" y1="416.62" x2="125.8" y2="416.62"/><line class="cls-23" x1="79.8" y1="401.99" x2="125.8" y2="401.99"/><line class="cls-24" x1="79.8" y1="387.36" x2="125.8" y2="387.36"/><line class="cls-25" x1="79.8" y1="372.72" x2="125.8" y2="372.72"/><line class="cls-26" x1="79.8" y1="358.09" x2="125.8" y2="358.09"/><line class="cls-27" x1="79.8" y1="343.46" x2="125.8" y2="343.46"/><line class="cls-28" x1="79.8" y1="328.83" x2="125.8" y2="328.83"/><line class="cls-29" x1="79.8" y1="314.2" x2="125.8" y2="314.2"/><line class="cls-30" x1="79.8" y1="299.56" x2="125.8" y2="299.56"/><line class="cls-31" x1="79.8" y1="284.93" x2="125.8" y2="284.93"/><line class="cls-32" x1="79.8" y1="270.3" x2="125.8" y2="270.3"/><line class="cls-33" x1="79.8" y1="255.67" x2="125.8" y2="255.67"/><line class="cls-34" x1="79.8" y1="241.04" x2="125.8" y2="241.04"/><line class="cls-35" x1="79.8" y1="226.4" x2="125.8" y2="226.4"/><line class="cls-36" x1="79.8" y1="211.77" x2="125.8" y2="211.77"/><line class="cls-37" x1="79.8" y1="197.14" x2="125.8" y2="197.14"/><line class="cls-38" x1="79.8" y1="182.51" x2="125.8" y2="182.51"/><line class="cls-39" x1="79.8" y1="167.88" x2="125.8" y2="167.88"/><line class="cls-40" x1="79.8" y1="153.25" x2="125.8" y2="153.25"/><line class="cls-41" x1="79.8" y1="138.61" x2="125.8" y2="138.61"/><line class="cls-42" x1="79.8" y1="123.98" x2="125.8" y2="123.98"/><line class="cls-43" x1="79.8" y1="109.35" x2="125.8" y2="109.35"/><line class="cls-44" x1="79.8" y1="94.72" x2="125.8" y2="94.72"/><line class="cls-45" x1="79.8" y1="80.09" x2="125.8" y2="80.09"/><line class="cls-46" x1="79.8" y1="65.45" x2="125.8" y2="65.45"/><line class="cls-47" x1="79.8" y1="50.82" x2="125.8" y2="50.82"/><line class="cls-48" x1="79.8" y1="36.19" x2="125.8" y2="36.19"/><line class="cls-49" x1="79.8" y1="21.56" x2="125.8" y2="21.56"/><line class="cls-50" x1="79.8" y1="6.93" x2="125.8" y2="6.93"/><line class="cls-51" x1="72.5" y1="701.94" x2="118.5" y2="701.94"/><line class="cls-52" x1="72.5" y1="687.31" x2="118.5" y2="687.31"/><line class="cls-53" x1="72.5" y1="672.68" x2="118.5" y2="672.68"/><line class="cls-54" x1="72.5" y1="658.04" x2="118.5" y2="658.04"/><line class="cls-55" x1="72.5" y1="643.41" x2="118.5" y2="643.41"/><line class="cls-56" x1="72.5" y1="628.78" x2="118.5" y2="628.78"/><line class="cls-57" x1="72.5" y1="614.15" x2="118.5" y2="614.15"/><line class="cls-58" x1="72.5" y1="599.52" x2="118.5" y2="599.52"/><line class="cls-59" x1="72.5" y1="584.88" x2="118.5" y2="584.88"/><line class="cls-60" x1="72.5" y1="570.25" x2="118.5" y2="570.25"/><line class="cls-61" x1="72.5" y1="555.62" x2="118.5" y2="555.62"/><line class="cls-62" x1="72.5" y1="540.99" x2="118.5" y2="540.99"/><line class="cls-63" x1="72.5" y1="526.36" x2="118.5" y2="526.36"/><line class="cls-64" x1="72.5" y1="511.73" x2="118.5" y2="511.73"/><line class="cls-65" x1="72.5" y1="497.09" x2="118.5" y2="497.09"/><line class="cls-66" x1="72.5" y1="482.46" x2="118.5" y2="482.46"/><line class="cls-67" x1="72.5" y1="467.83" x2="118.5" y2="467.83"/><line class="cls-68" x1="72.5" y1="453.2" x2="118.5" y2="453.2"/><line class="cls-69" x1="72.5" y1="438.57" x2="118.5" y2="438.57"/><line class="cls-70" x1="72.5" y1="423.93" x2="118.5" y2="423.93"/><line class="cls-71" x1="72.5" y1="409.3" x2="118.5" y2="409.3"/><line class="cls-72" x1="72.5" y1="394.67" x2="118.5" y2="394.67"/><line class="cls-73" x1="72.5" y1="380.04" x2="118.5" y2="380.04"/><line class="cls-74" x1="72.5" y1="365.41" x2="118.5" y2="365.41"/><line class="cls-75" x1="72.5" y1="350.78" x2="118.5" y2="350.78"/><line class="cls-76" x1="72.5" y1="336.14" x2="118.5" y2="336.14"/><line class="cls-77" x1="72.5" y1="321.51" x2="118.5" y2="321.51"/><line class="cls-78" x1="72.5" y1="306.88" x2="118.5" y2="306.88"/><line class="cls-79" x1="72.5" y1="292.25" x2="118.5" y2="292.25"/><line class="cls-80" x1="72.5" y1="277.62" x2="118.5" y2="277.62"/><line class="cls-81" x1="72.5" y1="262.98" x2="118.5" y2="262.98"/><line class="cls-82" x1="72.5" y1="248.35" x2="118.5" y2="248.35"/><line class="cls-83" x1="72.5" y1="233.72" x2="118.5" y2="233.72"/><line class="cls-84" x1="72.5" y1="219.09" x2="118.5" y2="219.09"/><line class="cls-85" x1="72.5" y1="204.46" x2="118.5" y2="204.46"/><line class="cls-86" x1="72.5" y1="189.83" x2="118.5" y2="189.83"/><line class="cls-87" x1="72.5" y1="175.19" x2="118.5" y2="175.19"/><line class="cls-88" x1="72.5" y1="160.56" x2="118.5" y2="160.56"/><line class="cls-89" x1="72.5" y1="145.93" x2="118.5" y2="145.93"/><line class="cls-90" x1="72.5" y1="131.3" x2="118.5" y2="131.3"/><line class="cls-91" x1="72.5" y1="116.67" x2="118.5" y2="116.67"/><line class="cls-92" x1="72.5" y1="102.03" x2="118.5" y2="102.03"/><line class="cls-93" x1="72.5" y1="87.4" x2="118.5" y2="87.4"/><line class="cls-94" x1="72.5" y1="72.77" x2="118.5" y2="72.77"/><line class="cls-95" x1="72.5" y1="58.14" x2="118.5" y2="58.14"/><line class="cls-96" x1="72.5" y1="43.51" x2="118.5" y2="43.51"/><line class="cls-97" x1="72.5" y1="28.88" x2="118.5" y2="28.88"/><line class="cls-98" x1="72.5" y1="14.24" x2="118.5" y2="14.24"/><line class="cls-2" x1="72.5" x2="118.5"/><line class="cls-3" x1="50.8" y1="694.62" x2="96.8" y2="694.62"/><line class="cls-4" x1="50.8" y1="679.99" x2="96.8" y2="679.99"/><line class="cls-5" x1="50.8" y1="665.36" x2="96.8" y2="665.36"/><line class="cls-6" x1="50.8" y1="650.73" x2="96.8" y2="650.73"/><line class="cls-7" x1="50.8" y1="636.1" x2="96.8" y2="636.1"/><line class="cls-8" x1="50.8" y1="621.46" x2="96.8" y2="621.46"/><line class="cls-9" x1="50.8" y1="606.83" x2="96.8" y2="606.83"/><line class="cls-10" x1="50.8" y1="592.2" x2="96.8" y2="592.2"/><line class="cls-11" x1="50.8" y1="577.57" x2="96.8" y2="577.57"/><line class="cls-12" x1="50.8" y1="562.94" x2="96.8" y2="562.94"/><line class="cls-13" x1="50.8" y1="548.31" x2="96.8" y2="548.31"/><line class="cls-14" x1="50.8" y1="533.67" x2="96.8" y2="533.67"/><line class="cls-15" x1="50.8" y1="519.04" x2="96.8" y2="519.04"/><line class="cls-16" x1="50.8" y1="504.41" x2="96.8" y2="504.41"/><line class="cls-17" x1="50.8" y1="489.78" x2="96.8" y2="489.78"/><line class="cls-18" x1="50.8" y1="475.15" x2="96.8" y2="475.15"/><line class="cls-19" x1="50.8" y1="460.51" x2="96.8" y2="460.51"/><line class="cls-20" x1="50.8" y1="445.88" x2="96.8" y2="445.88"/><line class="cls-21" x1="50.8" y1="431.25" x2="96.8" y2="431.25"/><line class="cls-22" x1="50.8" y1="416.62" x2="96.8" y2="416.62"/><line class="cls-23" x1="50.8" y1="401.99" x2="96.8" y2="401.99"/><line class="cls-24" x1="50.8" y1="387.36" x2="96.8" y2="387.36"/><line class="cls-25" x1="50.8" y1="372.72" x2="96.8" y2="372.72"/><line class="cls-26" x1="50.8" y1="358.09" x2="96.8" y2="358.09"/><line class="cls-27" x1="50.8" y1="343.46" x2="96.8" y2="343.46"/><line class="cls-28" x1="50.8" y1="328.83" x2="96.8" y2="328.83"/><line class="cls-29" x1="50.8" y1="314.2" x2="96.8" y2="314.2"/><line class="cls-30" x1="50.8" y1="299.56" x2="96.8" y2="299.56"/><line class="cls-31" x1="50.8" y1="284.93" x2="96.8" y2="284.93"/><line class="cls-32" x1="50.8" y1="270.3" x2="96.8" y2="270.3"/><line class="cls-33" x1="50.8" y1="255.67" x2="96.8" y2="255.67"/><line class="cls-34" x1="50.8" y1="241.04" x2="96.8" y2="241.04"/><line class="cls-35" x1="50.8" y1="226.4" x2="96.8" y2="226.4"/><line class="cls-36" x1="50.8" y1="211.77" x2="96.8" y2="211.77"/><line class="cls-37" x1="50.8" y1="197.14" x2="96.8" y2="197.14"/><line class="cls-38" x1="50.8" y1="182.51" x2="96.8" y2="182.51"/><line class="cls-39" x1="50.8" y1="167.88" x2="96.8" y2="167.88"/><line class="cls-40" x1="50.8" y1="153.25" x2="96.8" y2="153.25"/><line class="cls-41" x1="50.8" y1="138.61" x2="96.8" y2="138.61"/><line class="cls-42" x1="50.8" y1="123.98" x2="96.8" y2="123.98"/><line class="cls-43" x1="50.8" y1="109.35" x2="96.8" y2="109.35"/><line class="cls-44" x1="50.8" y1="94.72" x2="96.8" y2="94.72"/><line class="cls-45" x1="50.8" y1="80.09" x2="96.8" y2="80.09"/><line class="cls-46" x1="50.8" y1="65.45" x2="96.8" y2="65.45"/><line class="cls-47" x1="50.8" y1="50.82" x2="96.8" y2="50.82"/><line class="cls-48" x1="50.8" y1="36.19" x2="96.8" y2="36.19"/><line class="cls-49" x1="50.8" y1="21.56" x2="96.8" y2="21.56"/><line class="cls-50" x1="50.8" y1="6.93" x2="96.8" y2="6.93"/><line class="cls-51" x1="43.5" y1="701.94" x2="89.5" y2="701.94"/><line class="cls-52" x1="43.5" y1="687.31" x2="89.5" y2="687.31"/><line class="cls-53" x1="43.5" y1="672.68" x2="89.5" y2="672.68"/><line class="cls-54" x1="43.5" y1="658.04" x2="89.5" y2="658.04"/><line class="cls-55" x1="43.5" y1="643.41" x2="89.5" y2="643.41"/><line class="cls-56" x1="43.5" y1="628.78" x2="89.5" y2="628.78"/><line class="cls-57" x1="43.5" y1="614.15" x2="89.5" y2="614.15"/><line class="cls-58" x1="43.5" y1="599.52" x2="89.5" y2="599.52"/><line class="cls-59" x1="43.5" y1="584.88" x2="89.5" y2="584.88"/><line class="cls-60" x1="43.5" y1="570.25" x2="89.5" y2="570.25"/><line class="cls-61" x1="43.5" y1="555.62" x2="89.5" y2="555.62"/><line class="cls-62" x1="43.5" y1="540.99" x2="89.5" y2="540.99"/><line class="cls-63" x1="43.5" y1="526.36" x2="89.5" y2="526.36"/><line class="cls-64" x1="43.5" y1="511.73" x2="89.5" y2="511.73"/><line class="cls-65" x1="43.5" y1="497.09" x2="89.5" y2="497.09"/><line class="cls-66" x1="43.5" y1="482.46" x2="89.5" y2="482.46"/><line class="cls-67" x1="43.5" y1="467.83" x2="89.5" y2="467.83"/><line class="cls-68" x1="43.5" y1="453.2" x2="89.5" y2="453.2"/><line class="cls-69" x1="43.5" y1="438.57" x2="89.5" y2="438.57"/><line class="cls-70" x1="43.5" y1="423.93" x2="89.5" y2="423.93"/><line class="cls-71" x1="43.5" y1="409.3" x2="89.5" y2="409.3"/><line class="cls-72" x1="43.5" y1="394.67" x2="89.5" y2="394.67"/><line class="cls-73" x1="43.5" y1="380.04" x2="89.5" y2="380.04"/><line class="cls-74" x1="43.5" y1="365.41" x2="89.5" y2="365.41"/><line class="cls-75" x1="43.5" y1="350.78" x2="89.5" y2="350.78"/><line class="cls-76" x1="43.5" y1="336.14" x2="89.5" y2="336.14"/><line class="cls-77" x1="43.5" y1="321.51" x2="89.5" y2="321.51"/><line class="cls-78" x1="43.5" y1="306.88" x2="89.5" y2="306.88"/><line class="cls-79" x1="43.5" y1="292.25" x2="89.5" y2="292.25"/><line class="cls-80" x1="43.5" y1="277.62" x2="89.5" y2="277.62"/><line class="cls-81" x1="43.5" y1="262.98" x2="89.5" y2="262.98"/><line class="cls-82" x1="43.5" y1="248.35" x2="89.5" y2="248.35"/><line class="cls-83" x1="43.5" y1="233.72" x2="89.5" y2="233.72"/><line class="cls-84" x1="43.5" y1="219.09" x2="89.5" y2="219.09"/><line class="cls-85" x1="43.5" y1="204.46" x2="89.5" y2="204.46"/><line class="cls-86" x1="43.5" y1="189.83" x2="89.5" y2="189.83"/><line class="cls-87" x1="43.5" y1="175.19" x2="89.5" y2="175.19"/><line class="cls-88" x1="43.5" y1="160.56" x2="89.5" y2="160.56"/><line class="cls-89" x1="43.5" y1="145.93" x2="89.5" y2="145.93"/><line class="cls-90" x1="43.5" y1="131.3" x2="89.5" y2="131.3"/><line class="cls-91" x1="43.5" y1="116.67" x2="89.5" y2="116.67"/><line class="cls-92" x1="43.5" y1="102.03" x2="89.5" y2="102.03"/><line class="cls-93" x1="43.5" y1="87.4" x2="89.5" y2="87.4"/><line class="cls-94" x1="43.5" y1="72.77" x2="89.5" y2="72.77"/><line class="cls-95" x1="43.5" y1="58.14" x2="89.5" y2="58.14"/><line class="cls-96" x1="43.5" y1="43.51" x2="89.5" y2="43.51"/><line class="cls-97" x1="43.5" y1="28.88" x2="89.5" y2="28.88"/><line class="cls-98" x1="43.5" y1="14.24" x2="89.5" y2="14.24"/><line class="cls-2" x1="43.5" x2="89.5"/><line class="cls-3" x1="21.8" y1="694.62" x2="67.8" y2="694.62"/><line class="cls-4" x1="21.8" y1="679.99" x2="67.8" y2="679.99"/><line class="cls-5" x1="21.8" y1="665.36" x2="67.8" y2="665.36"/><line class="cls-6" x1="21.8" y1="650.73" x2="67.8" y2="650.73"/><line class="cls-7" x1="21.8" y1="636.1" x2="67.8" y2="636.1"/><line class="cls-8" x1="21.8" y1="621.46" x2="67.8" y2="621.46"/><line class="cls-9" x1="21.8" y1="606.83" x2="67.8" y2="606.83"/><line class="cls-10" x1="21.8" y1="592.2" x2="67.8" y2="592.2"/><line class="cls-11" x1="21.8" y1="577.57" x2="67.8" y2="577.57"/><line class="cls-12" x1="21.8" y1="562.94" x2="67.8" y2="562.94"/><line class="cls-13" x1="21.8" y1="548.31" x2="67.8" y2="548.31"/><line class="cls-14" x1="21.8" y1="533.67" x2="67.8" y2="533.67"/><line class="cls-15" x1="21.8" y1="519.04" x2="67.8" y2="519.04"/><line class="cls-16" x1="21.8" y1="504.41" x2="67.8" y2="504.41"/><line class="cls-17" x1="21.8" y1="489.78" x2="67.8" y2="489.78"/><line class="cls-18" x1="21.8" y1="475.15" x2="67.8" y2="475.15"/><line class="cls-19" x1="21.8" y1="460.51" x2="67.8" y2="460.51"/><line class="cls-20" x1="21.8" y1="445.88" x2="67.8" y2="445.88"/><line class="cls-21" x1="21.8" y1="431.25" x2="67.8" y2="431.25"/><line class="cls-22" x1="21.8" y1="416.62" x2="67.8" y2="416.62"/><line class="cls-23" x1="21.8" y1="401.99" x2="67.8" y2="401.99"/><line class="cls-24" x1="21.8" y1="387.36" x2="67.8" y2="387.36"/><line class="cls-25" x1="21.8" y1="372.72" x2="67.8" y2="372.72"/><line class="cls-26" x1="21.8" y1="358.09" x2="67.8" y2="358.09"/><line class="cls-27" x1="21.8" y1="343.46" x2="67.8" y2="343.46"/><line class="cls-28" x1="21.8" y1="328.83" x2="67.8" y2="328.83"/><line class="cls-29" x1="21.8" y1="314.2" x2="67.8" y2="314.2"/><line class="cls-30" x1="21.8" y1="299.56" x2="67.8" y2="299.56"/><line class="cls-31" x1="21.8" y1="284.93" x2="67.8" y2="284.93"/><line class="cls-32" x1="21.8" y1="270.3" x2="67.8" y2="270.3"/><line class="cls-33" x1="21.8" y1="255.67" x2="67.8" y2="255.67"/><line class="cls-34" x1="21.8" y1="241.04" x2="67.8" y2="241.04"/><line class="cls-35" x1="21.8" y1="226.4" x2="67.8" y2="226.4"/><line class="cls-36" x1="21.8" y1="211.77" x2="67.8" y2="211.77"/><line class="cls-37" x1="21.8" y1="197.14" x2="67.8" y2="197.14"/><line class="cls-38" x1="21.8" y1="182.51" x2="67.8" y2="182.51"/><line class="cls-39" x1="21.8" y1="167.88" x2="67.8" y2="167.88"/><line class="cls-40" x1="21.8" y1="153.25" x2="67.8" y2="153.25"/><line class="cls-41" x1="21.8" y1="138.61" x2="67.8" y2="138.61"/><line class="cls-42" x1="21.8" y1="123.98" x2="67.8" y2="123.98"/><line class="cls-43" x1="21.8" y1="109.35" x2="67.8" y2="109.35"/><line class="cls-44" x1="21.8" y1="94.72" x2="67.8" y2="94.72"/><line class="cls-45" x1="21.8" y1="80.09" x2="67.8" y2="80.09"/><line class="cls-46" x1="21.8" y1="65.45" x2="67.8" y2="65.45"/><line class="cls-47" x1="21.8" y1="50.82" x2="67.8" y2="50.82"/><line class="cls-48" x1="21.8" y1="36.19" x2="67.8" y2="36.19"/><line class="cls-49" x1="21.8" y1="21.56" x2="67.8" y2="21.56"/><line class="cls-50" x1="21.8" y1="6.93" x2="67.8" y2="6.93"/><line class="cls-51" x1="14.5" y1="701.94" x2="60.5" y2="701.94"/><line class="cls-52" x1="14.5" y1="687.31" x2="60.5" y2="687.31"/><line class="cls-53" x1="14.5" y1="672.68" x2="60.5" y2="672.68"/><line class="cls-54" x1="14.5" y1="658.04" x2="60.5" y2="658.04"/><line class="cls-55" x1="14.5" y1="643.41" x2="60.5" y2="643.41"/><line class="cls-56" x1="14.5" y1="628.78" x2="60.5" y2="628.78"/><line class="cls-57" x1="14.5" y1="614.15" x2="60.5" y2="614.15"/><line class="cls-58" x1="14.5" y1="599.52" x2="60.5" y2="599.52"/><line class="cls-59" x1="14.5" y1="584.88" x2="60.5" y2="584.88"/><line class="cls-60" x1="14.5" y1="570.25" x2="60.5" y2="570.25"/><line class="cls-61" x1="14.5" y1="555.62" x2="60.5" y2="555.62"/><line class="cls-62" x1="14.5" y1="540.99" x2="60.5" y2="540.99"/><line class="cls-63" x1="14.5" y1="526.36" x2="60.5" y2="526.36"/><line class="cls-64" x1="14.5" y1="511.73" x2="60.5" y2="511.73"/><line class="cls-65" x1="14.5" y1="497.09" x2="60.5" y2="497.09"/><line class="cls-66" x1="14.5" y1="482.46" x2="60.5" y2="482.46"/><line class="cls-67" x1="14.5" y1="467.83" x2="60.5" y2="467.83"/><line class="cls-68" x1="14.5" y1="453.2" x2="60.5" y2="453.2"/><line class="cls-69" x1="14.5" y1="438.57" x2="60.5" y2="438.57"/><line class="cls-70" x1="14.5" y1="423.93" x2="60.5" y2="423.93"/><line class="cls-71" x1="14.5" y1="409.3" x2="60.5" y2="409.3"/><line class="cls-72" x1="14.5" y1="394.67" x2="60.5" y2="394.67"/><line class="cls-73" x1="14.5" y1="380.04" x2="60.5" y2="380.04"/><line class="cls-74" x1="14.5" y1="365.41" x2="60.5" y2="365.41"/><line class="cls-75" x1="14.5" y1="350.78" x2="60.5" y2="350.78"/><line class="cls-76" x1="14.5" y1="336.14" x2="60.5" y2="336.14"/><line class="cls-77" x1="14.5" y1="321.51" x2="60.5" y2="321.51"/><line class="cls-78" x1="14.5" y1="306.88" x2="60.5" y2="306.88"/><line class="cls-79" x1="14.5" y1="292.25" x2="60.5" y2="292.25"/><line class="cls-80" x1="14.5" y1="277.62" x2="60.5" y2="277.62"/><line class="cls-81" x1="14.5" y1="262.98" x2="60.5" y2="262.98"/><line class="cls-82" x1="14.5" y1="248.35" x2="60.5" y2="248.35"/><line class="cls-83" x1="14.5" y1="233.72" x2="60.5" y2="233.72"/><line class="cls-84" x1="14.5" y1="219.09" x2="60.5" y2="219.09"/><line class="cls-85" x1="14.5" y1="204.46" x2="60.5" y2="204.46"/><line class="cls-86" x1="14.5" y1="189.83" x2="60.5" y2="189.83"/><line class="cls-87" x1="14.5" y1="175.19" x2="60.5" y2="175.19"/><line class="cls-88" x1="14.5" y1="160.56" x2="60.5" y2="160.56"/><line class="cls-89" x1="14.5" y1="145.93" x2="60.5" y2="145.93"/><line class="cls-90" x1="14.5" y1="131.3" x2="60.5" y2="131.3"/><line class="cls-91" x1="14.5" y1="116.67" x2="60.5" y2="116.67"/><line class="cls-92" x1="14.5" y1="102.03" x2="60.5" y2="102.03"/><line class="cls-93" x1="14.5" y1="87.4" x2="60.5" y2="87.4"/><line class="cls-94" x1="14.5" y1="72.77" x2="60.5" y2="72.77"/><line class="cls-95" x1="14.5" y1="58.14" x2="60.5" y2="58.14"/><line class="cls-96" x1="14.5" y1="43.51" x2="60.5" y2="43.51"/><line class="cls-97" x1="14.5" y1="28.88" x2="60.5" y2="28.88"/><line class="cls-98" x1="14.5" y1="14.24" x2="60.5" y2="14.24"/><line class="cls-2" x1="14.5" x2="60.5"/><line class="cls-3" x1="-7.2" y1="694.62" x2="38.8" y2="694.62"/><line class="cls-4" x1="-7.2" y1="679.99" x2="38.8" y2="679.99"/><line class="cls-5" x1="-7.2" y1="665.36" x2="38.8" y2="665.36"/><line class="cls-6" x1="-7.2" y1="650.73" x2="38.8" y2="650.73"/><line class="cls-7" x1="-7.2" y1="636.1" x2="38.8" y2="636.1"/><line class="cls-8" x1="-7.2" y1="621.46" x2="38.8" y2="621.46"/><line class="cls-9" x1="-7.2" y1="606.83" x2="38.8" y2="606.83"/><line class="cls-10" x1="-7.2" y1="592.2" x2="38.8" y2="592.2"/><line class="cls-11" x1="-7.2" y1="577.57" x2="38.8" y2="577.57"/><line class="cls-12" x1="-7.2" y1="562.94" x2="38.8" y2="562.94"/><line class="cls-13" x1="-7.2" y1="548.31" x2="38.8" y2="548.31"/><line class="cls-14" x1="-7.2" y1="533.67" x2="38.8" y2="533.67"/><line class="cls-15" x1="-7.2" y1="519.04" x2="38.8" y2="519.04"/><line class="cls-16" x1="-7.2" y1="504.41" x2="38.8" y2="504.41"/><line class="cls-17" x1="-7.2" y1="489.78" x2="38.8" y2="489.78"/><line class="cls-18" x1="-7.2" y1="475.15" x2="38.8" y2="475.15"/><line class="cls-19" x1="-7.2" y1="460.51" x2="38.8" y2="460.51"/><line class="cls-20" x1="-7.2" y1="445.88" x2="38.8" y2="445.88"/><line class="cls-21" x1="-7.2" y1="431.25" x2="38.8" y2="431.25"/><line class="cls-22" x1="-7.2" y1="416.62" x2="38.8" y2="416.62"/><line class="cls-23" x1="-7.2" y1="401.99" x2="38.8" y2="401.99"/><line class="cls-24" x1="-7.2" y1="387.36" x2="38.8" y2="387.36"/><line class="cls-25" x1="-7.2" y1="372.72" x2="38.8" y2="372.72"/><line class="cls-26" x1="-7.2" y1="358.09" x2="38.8" y2="358.09"/><line class="cls-27" x1="-7.2" y1="343.46" x2="38.8" y2="343.46"/><line class="cls-28" x1="-7.2" y1="328.83" x2="38.8" y2="328.83"/><line class="cls-29" x1="-7.2" y1="314.2" x2="38.8" y2="314.2"/><line class="cls-30" x1="-7.2" y1="299.56" x2="38.8" y2="299.56"/><line class="cls-31" x1="-7.2" y1="284.93" x2="38.8" y2="284.93"/><line class="cls-32" x1="-7.2" y1="270.3" x2="38.8" y2="270.3"/><line class="cls-33" x1="-7.2" y1="255.67" x2="38.8" y2="255.67"/><line class="cls-34" x1="-7.2" y1="241.04" x2="38.8" y2="241.04"/><line class="cls-35" x1="-7.2" y1="226.4" x2="38.8" y2="226.4"/><line class="cls-36" x1="-7.2" y1="211.77" x2="38.8" y2="211.77"/><line class="cls-37" x1="-7.2" y1="197.14" x2="38.8" y2="197.14"/><line class="cls-38" x1="-7.2" y1="182.51" x2="38.8" y2="182.51"/><line class="cls-39" x1="-7.2" y1="167.88" x2="38.8" y2="167.88"/><line class="cls-40" x1="-7.2" y1="153.25" x2="38.8" y2="153.25"/><line class="cls-41" x1="-7.2" y1="138.61" x2="38.8" y2="138.61"/><line class="cls-42" x1="-7.2" y1="123.98" x2="38.8" y2="123.98"/><line class="cls-43" x1="-7.2" y1="109.35" x2="38.8" y2="109.35"/><line class="cls-44" x1="-7.2" y1="94.72" x2="38.8" y2="94.72"/><line class="cls-45" x1="-7.2" y1="80.09" x2="38.8" y2="80.09"/><line class="cls-46" x1="-7.2" y1="65.45" x2="38.8" y2="65.45"/><line class="cls-47" x1="-7.2" y1="50.82" x2="38.8" y2="50.82"/><line class="cls-48" x1="-7.2" y1="36.19" x2="38.8" y2="36.19"/><line class="cls-49" x1="-7.2" y1="21.56" x2="38.8" y2="21.56"/><line class="cls-50" x1="-7.2" y1="6.93" x2="38.8" y2="6.93"/><line class="cls-51" x1="-14.5" y1="701.94" x2="31.5" y2="701.94"/><line class="cls-52" x1="-14.5" y1="687.31" x2="31.5" y2="687.31"/><line class="cls-53" x1="-14.5" y1="672.68" x2="31.5" y2="672.68"/><line class="cls-54" x1="-14.5" y1="658.04" x2="31.5" y2="658.04"/><line class="cls-55" x1="-14.5" y1="643.41" x2="31.5" y2="643.41"/><line class="cls-56" x1="-14.5" y1="628.78" x2="31.5" y2="628.78"/><line class="cls-57" x1="-14.5" y1="614.15" x2="31.5" y2="614.15"/><line class="cls-58" x1="-14.5" y1="599.52" x2="31.5" y2="599.52"/><line class="cls-59" x1="-14.5" y1="584.88" x2="31.5" y2="584.88"/><line class="cls-60" x1="-14.5" y1="570.25" x2="31.5" y2="570.25"/><line class="cls-61" x1="-14.5" y1="555.62" x2="31.5" y2="555.62"/><line class="cls-62" x1="-14.5" y1="540.99" x2="31.5" y2="540.99"/><line class="cls-63" x1="-14.5" y1="526.36" x2="31.5" y2="526.36"/><line class="cls-64" x1="-14.5" y1="511.73" x2="31.5" y2="511.73"/><line class="cls-65" x1="-14.5" y1="497.09" x2="31.5" y2="497.09"/><line class="cls-66" x1="-14.5" y1="482.46" x2="31.5" y2="482.46"/><line class="cls-67" x1="-14.5" y1="467.83" x2="31.5" y2="467.83"/><line class="cls-68" x1="-14.5" y1="453.2" x2="31.5" y2="453.2"/><line class="cls-69" x1="-14.5" y1="438.57" x2="31.5" y2="438.57"/><line class="cls-70" x1="-14.5" y1="423.93" x2="31.5" y2="423.93"/><line class="cls-71" x1="-14.5" y1="409.3" x2="31.5" y2="409.3"/><line class="cls-72" x1="-14.5" y1="394.67" x2="31.5" y2="394.67"/><line class="cls-73" x1="-14.5" y1="380.04" x2="31.5" y2="380.04"/><line class="cls-74" x1="-14.5" y1="365.41" x2="31.5" y2="365.41"/><line class="cls-75" x1="-14.5" y1="350.78" x2="31.5" y2="350.78"/><line class="cls-76" x1="-14.5" y1="336.14" x2="31.5" y2="336.14"/><line class="cls-77" x1="-14.5" y1="321.51" x2="31.5" y2="321.51"/><line class="cls-78" x1="-14.5" y1="306.88" x2="31.5" y2="306.88"/><line class="cls-79" x1="-14.5" y1="292.25" x2="31.5" y2="292.25"/><line class="cls-80" x1="-14.5" y1="277.62" x2="31.5" y2="277.62"/><line class="cls-81" x1="-14.5" y1="262.98" x2="31.5" y2="262.98"/><line class="cls-82" x1="-14.5" y1="248.35" x2="31.5" y2="248.35"/><line class="cls-83" x1="-14.5" y1="233.72" x2="31.5" y2="233.72"/><line class="cls-84" x1="-14.5" y1="219.09" x2="31.5" y2="219.09"/><line class="cls-85" x1="-14.5" y1="204.46" x2="31.5" y2="204.46"/><line class="cls-86" x1="-14.5" y1="189.83" x2="31.5" y2="189.83"/><line class="cls-87" x1="-14.5" y1="175.19" x2="31.5" y2="175.19"/><line class="cls-88" x1="-14.5" y1="160.56" x2="31.5" y2="160.56"/><line class="cls-89" x1="-14.5" y1="145.93" x2="31.5" y2="145.93"/><line class="cls-90" x1="-14.5" y1="131.3" x2="31.5" y2="131.3"/><line class="cls-91" x1="-14.5" y1="116.67" x2="31.5" y2="116.67"/><line class="cls-92" x1="-14.5" y1="102.03" x2="31.5" y2="102.03"/><line class="cls-93" x1="-14.5" y1="87.4" x2="31.5" y2="87.4"/><line class="cls-94" x1="-14.5" y1="72.77" x2="31.5" y2="72.77"/><line class="cls-95" x1="-14.5" y1="58.14" x2="31.5" y2="58.14"/><line class="cls-96" x1="-14.5" y1="43.51" x2="31.5" y2="43.51"/><line class="cls-97" x1="-14.5" y1="28.88" x2="31.5" y2="28.88"/><line class="cls-98" x1="-14.5" y1="14.24" x2="31.5" y2="14.24"/><line class="cls-2" x1="-14.5" x2="31.5"/><line class="cls-3" x1="-36.2" y1="694.62" x2="9.8" y2="694.62"/><line class="cls-4" x1="-36.2" y1="679.99" x2="9.8" y2="679.99"/><line class="cls-5" x1="-36.2" y1="665.36" x2="9.8" y2="665.36"/><line class="cls-6" x1="-36.2" y1="650.73" x2="9.8" y2="650.73"/><line class="cls-7" x1="-36.2" y1="636.1" x2="9.8" y2="636.1"/><line class="cls-8" x1="-36.2" y1="621.46" x2="9.8" y2="621.46"/><line class="cls-9" x1="-36.2" y1="606.83" x2="9.8" y2="606.83"/><line class="cls-10" x1="-36.2" y1="592.2" x2="9.8" y2="592.2"/><line class="cls-11" x1="-36.2" y1="577.57" x2="9.8" y2="577.57"/><line class="cls-12" x1="-36.2" y1="562.94" x2="9.8" y2="562.94"/><line class="cls-13" x1="-36.2" y1="548.31" x2="9.8" y2="548.31"/><line class="cls-14" x1="-36.2" y1="533.67" x2="9.8" y2="533.67"/><line class="cls-15" x1="-36.2" y1="519.04" x2="9.8" y2="519.04"/><line class="cls-16" x1="-36.2" y1="504.41" x2="9.8" y2="504.41"/><line class="cls-17" x1="-36.2" y1="489.78" x2="9.8" y2="489.78"/><line class="cls-18" x1="-36.2" y1="475.15" x2="9.8" y2="475.15"/><line class="cls-19" x1="-36.2" y1="460.51" x2="9.8" y2="460.51"/><line class="cls-20" x1="-36.2" y1="445.88" x2="9.8" y2="445.88"/><line class="cls-21" x1="-36.2" y1="431.25" x2="9.8" y2="431.25"/><line class="cls-22" x1="-36.2" y1="416.62" x2="9.8" y2="416.62"/><line class="cls-23" x1="-36.2" y1="401.99" x2="9.8" y2="401.99"/><line class="cls-24" x1="-36.2" y1="387.36" x2="9.8" y2="387.36"/><line class="cls-25" x1="-36.2" y1="372.72" x2="9.8" y2="372.72"/><line class="cls-26" x1="-36.2" y1="358.09" x2="9.8" y2="358.09"/><line class="cls-27" x1="-36.2" y1="343.46" x2="9.8" y2="343.46"/><line class="cls-28" x1="-36.2" y1="328.83" x2="9.8" y2="328.83"/><line class="cls-29" x1="-36.2" y1="314.2" x2="9.8" y2="314.2"/><line class="cls-30" x1="-36.2" y1="299.56" x2="9.8" y2="299.56"/><line class="cls-31" x1="-36.2" y1="284.93" x2="9.8" y2="284.93"/><line class="cls-32" x1="-36.2" y1="270.3" x2="9.8" y2="270.3"/><line class="cls-33" x1="-36.2" y1="255.67" x2="9.8" y2="255.67"/><line class="cls-34" x1="-36.2" y1="241.04" x2="9.8" y2="241.04"/><line class="cls-35" x1="-36.2" y1="226.4" x2="9.8" y2="226.4"/><line class="cls-36" x1="-36.2" y1="211.77" x2="9.8" y2="211.77"/><line class="cls-37" x1="-36.2" y1="197.14" x2="9.8" y2="197.14"/><line class="cls-38" x1="-36.2" y1="182.51" x2="9.8" y2="182.51"/><line class="cls-39" x1="-36.2" y1="167.88" x2="9.8" y2="167.88"/><line class="cls-40" x1="-36.2" y1="153.25" x2="9.8" y2="153.25"/><line class="cls-41" x1="-36.2" y1="138.61" x2="9.8" y2="138.61"/><line class="cls-42" x1="-36.2" y1="123.98" x2="9.8" y2="123.98"/><line class="cls-43" x1="-36.2" y1="109.35" x2="9.8" y2="109.35"/><line class="cls-44" x1="-36.2" y1="94.72" x2="9.8" y2="94.72"/><line class="cls-45" x1="-36.2" y1="80.09" x2="9.8" y2="80.09"/><line class="cls-46" x1="-36.2" y1="65.45" x2="9.8" y2="65.45"/><line class="cls-47" x1="-36.2" y1="50.82" x2="9.8" y2="50.82"/><line class="cls-48" x1="-36.2" y1="36.19" x2="9.8" y2="36.19"/><line class="cls-49" x1="-36.2" y1="21.56" x2="9.8" y2="21.56"/><line class="cls-50" x1="-36.2" y1="6.93" x2="9.8" y2="6.93"/><line class="cls-51" x1="-43.5" y1="701.94" x2="2.5" y2="701.94"/><line class="cls-52" x1="-43.5" y1="687.31" x2="2.5" y2="687.31"/><line class="cls-53" x1="-43.5" y1="672.68" x2="2.5" y2="672.68"/><line class="cls-54" x1="-43.5" y1="658.04" x2="2.5" y2="658.04"/><line class="cls-55" x1="-43.5" y1="643.41" x2="2.5" y2="643.41"/><line class="cls-56" x1="-43.5" y1="628.78" x2="2.5" y2="628.78"/><line class="cls-57" x1="-43.5" y1="614.15" x2="2.5" y2="614.15"/><line class="cls-58" x1="-43.5" y1="599.52" x2="2.5" y2="599.52"/><line class="cls-59" x1="-43.5" y1="584.88" x2="2.5" y2="584.88"/><line class="cls-60" x1="-43.5" y1="570.25" x2="2.5" y2="570.25"/><line class="cls-61" x1="-43.5" y1="555.62" x2="2.5" y2="555.62"/><line class="cls-62" x1="-43.5" y1="540.99" x2="2.5" y2="540.99"/><line class="cls-63" x1="-43.5" y1="526.36" x2="2.5" y2="526.36"/><line class="cls-64" x1="-43.5" y1="511.73" x2="2.5" y2="511.73"/><line class="cls-65" x1="-43.5" y1="497.09" x2="2.5" y2="497.09"/><line class="cls-66" x1="-43.5" y1="482.46" x2="2.5" y2="482.46"/><line class="cls-67" x1="-43.5" y1="467.83" x2="2.5" y2="467.83"/><line class="cls-68" x1="-43.5" y1="453.2" x2="2.5" y2="453.2"/><line class="cls-69" x1="-43.5" y1="438.57" x2="2.5" y2="438.57"/><line class="cls-70" x1="-43.5" y1="423.93" x2="2.5" y2="423.93"/><line class="cls-71" x1="-43.5" y1="409.3" x2="2.5" y2="409.3"/><line class="cls-72" x1="-43.5" y1="394.67" x2="2.5" y2="394.67"/><line class="cls-73" x1="-43.5" y1="380.04" x2="2.5" y2="380.04"/><line class="cls-74" x1="-43.5" y1="365.41" x2="2.5" y2="365.41"/><line class="cls-75" x1="-43.5" y1="350.78" x2="2.5" y2="350.78"/><line class="cls-76" x1="-43.5" y1="336.14" x2="2.5" y2="336.14"/><line class="cls-77" x1="-43.5" y1="321.51" x2="2.5" y2="321.51"/><line class="cls-78" x1="-43.5" y1="306.88" x2="2.5" y2="306.88"/><line class="cls-79" x1="-43.5" y1="292.25" x2="2.5" y2="292.25"/><line class="cls-80" x1="-43.5" y1="277.62" x2="2.5" y2="277.62"/><line class="cls-81" x1="-43.5" y1="262.98" x2="2.5" y2="262.98"/><line class="cls-82" x1="-43.5" y1="248.35" x2="2.5" y2="248.35"/><line class="cls-83" x1="-43.5" y1="233.72" x2="2.5" y2="233.72"/><line class="cls-84" x1="-43.5" y1="219.09" x2="2.5" y2="219.09"/><line class="cls-85" x1="-43.5" y1="204.46" x2="2.5" y2="204.46"/><line class="cls-86" x1="-43.5" y1="189.83" x2="2.5" y2="189.83"/><line class="cls-87" x1="-43.5" y1="175.19" x2="2.5" y2="175.19"/><line class="cls-88" x1="-43.5" y1="160.56" x2="2.5" y2="160.56"/><line class="cls-89" x1="-43.5" y1="145.93" x2="2.5" y2="145.93"/><line class="cls-90" x1="-43.5" y1="131.3" x2="2.5" y2="131.3"/><line class="cls-91" x1="-43.5" y1="116.67" x2="2.5" y2="116.67"/><line class="cls-92" x1="-43.5" y1="102.03" x2="2.5" y2="102.03"/><line class="cls-93" x1="-43.5" y1="87.4" x2="2.5" y2="87.4"/><line class="cls-94" x1="-43.5" y1="72.77" x2="2.5" y2="72.77"/><line class="cls-95" x1="-43.5" y1="58.14" x2="2.5" y2="58.14"/><line class="cls-96" x1="-43.5" y1="43.51" x2="2.5" y2="43.51"/><line class="cls-97" x1="-43.5" y1="28.88" x2="2.5" y2="28.88"/><line class="cls-98" x1="-43.5" y1="14.24" x2="2.5" y2="14.24"/><line class="cls-2" x1="-43.5" x2="2.5"/></pattern><clipPath id="clip-path-2"><polygon class="cls-1" points="723 293.84 687 294 687 259.66 723 259.5 723 293.84"/></clipPath><pattern id="_10_dpi_50_3" data-name="10 dpi 50% 3" width="28.8" height="28.8" patternTransform="translate(-7.19 -37.73) scale(0.67)" patternUnits="userSpaceOnUse" viewBox="0 0 28.8 28.8"><rect class="cls-1" width="28.8" height="28.8"/><path class="cls-99" d="M28.8,32.4a3.6,3.6,0,1,0-3.6-3.6A3.6,3.6,0,0,0,28.8,32.4Z"/><path class="cls-99" d="M14.4,32.4a3.6,3.6,0,1,0-3.6-3.6A3.6,3.6,0,0,0,14.4,32.4Z"/><circle class="cls-99" cx="28.8" cy="14.4" r="3.6"/><path class="cls-99" d="M14.4,18a3.6,3.6,0,1,0-3.6-3.6A3.6,3.6,0,0,0,14.4,18Z"/><path class="cls-99" d="M7.2,25.2a3.6,3.6,0,1,0-3.6-3.6A3.6,3.6,0,0,0,7.2,25.2Z"/><path class="cls-99" d="M21.6,25.2A3.6,3.6,0,1,0,18,21.6,3.6,3.6,0,0,0,21.6,25.2Z"/><path class="cls-99" d="M7.2,10.8A3.6,3.6,0,1,0,3.6,7.2,3.6,3.6,0,0,0,7.2,10.8Z"/><path class="cls-99" d="M21.6,10.8A3.6,3.6,0,1,0,18,7.2,3.6,3.6,0,0,0,21.6,10.8Z"/><path class="cls-99" d="M0,32.4a3.6,3.6,0,0,0,0-7.2,3.6,3.6,0,0,0-3.6,3.6A3.6,3.6,0,0,0,0,32.4Z"/><circle class="cls-99" cy="14.4" r="3.6"/><path class="cls-99" d="M28.8,3.6A3.6,3.6,0,0,0,32.4,0a3.6,3.6,0,0,0-3.6-3.6A3.6,3.6,0,0,0,25.2,0,3.6,3.6,0,0,0,28.8,3.6Z"/><path class="cls-99" d="M14.4,3.6A3.6,3.6,0,0,0,18,0a3.6,3.6,0,0,0-3.6-3.6A3.6,3.6,0,0,0,10.8,0,3.6,3.6,0,0,0,14.4,3.6Z"/><path class="cls-99" d="M0,3.6A3.6,3.6,0,0,0,3.6,0,3.6,3.6,0,0,0,0-3.6,3.6,3.6,0,0,0-3.6,0,3.6,3.6,0,0,0,0,3.6Z"/></pattern><pattern id="_10_dpi_50_3-3" data-name="10 dpi 50% 3" width="28.8" height="28.8" patternTransform="translate(-10.52 -35.75) scale(0.67)" patternUnits="userSpaceOnUse" viewBox="0 0 28.8 28.8"><rect class="cls-1" width="28.8" height="28.8"/><path class="cls-99" d="M28.8,32.4a3.6,3.6,0,1,0-3.6-3.6A3.6,3.6,0,0,0,28.8,32.4Z"/><path class="cls-99" d="M14.4,32.4a3.6,3.6,0,1,0-3.6-3.6A3.6,3.6,0,0,0,14.4,32.4Z"/><circle class="cls-99" cx="28.8" cy="14.4" r="3.6"/><path class="cls-99" d="M14.4,18a3.6,3.6,0,1,0-3.6-3.6A3.6,3.6,0,0,0,14.4,18Z"/><path class="cls-99" d="M7.2,25.2a3.6,3.6,0,1,0-3.6-3.6A3.6,3.6,0,0,0,7.2,25.2Z"/><path class="cls-99" d="M21.6,25.2A3.6,3.6,0,1,0,18,21.6,3.6,3.6,0,0,0,21.6,25.2Z"/><path class="cls-99" d="M7.2,10.8A3.6,3.6,0,1,0,3.6,7.2,3.6,3.6,0,0,0,7.2,10.8Z"/><path class="cls-99" d="M21.6,10.8A3.6,3.6,0,1,0,18,7.2,3.6,3.6,0,0,0,21.6,10.8Z"/><path class="cls-99" d="M0,32.4a3.6,3.6,0,0,0,0-7.2,3.6,3.6,0,0,0-3.6,3.6A3.6,3.6,0,0,0,0,32.4Z"/><circle class="cls-99" cy="14.4" r="3.6"/><path class="cls-99" d="M28.8,3.6A3.6,3.6,0,0,0,32.4,0a3.6,3.6,0,0,0-3.6-3.6A3.6,3.6,0,0,0,25.2,0,3.6,3.6,0,0,0,28.8,3.6Z"/><path class="cls-99" d="M14.4,3.6A3.6,3.6,0,0,0,18,0a3.6,3.6,0,0,0-3.6-3.6A3.6,3.6,0,0,0,10.8,0,3.6,3.6,0,0,0,14.4,3.6Z"/><path class="cls-99" d="M0,3.6A3.6,3.6,0,0,0,3.6,0,3.6,3.6,0,0,0,0-3.6,3.6,3.6,0,0,0-3.6,0,3.6,3.6,0,0,0,0,3.6Z"/></pattern><pattern id="_10_dpi_50_3-7" data-name="10 dpi 50% 3" width="28.8" height="28.8" patternTransform="matrix(-0.67, 0, 0, 0.67, 35.44, -35.75)" patternUnits="userSpaceOnUse" viewBox="0 0 28.8 28.8"><rect class="cls-1" width="28.8" height="28.8"/><path class="cls-99" d="M28.8,32.4a3.6,3.6,0,1,0-3.6-3.6A3.6,3.6,0,0,0,28.8,32.4Z"/><path class="cls-99" d="M14.4,32.4a3.6,3.6,0,1,0-3.6-3.6A3.6,3.6,0,0,0,14.4,32.4Z"/><circle class="cls-99" cx="28.8" cy="14.4" r="3.6"/><path class="cls-99" d="M14.4,18a3.6,3.6,0,1,0-3.6-3.6A3.6,3.6,0,0,0,14.4,18Z"/><path class="cls-99" d="M7.2,25.2a3.6,3.6,0,1,0-3.6-3.6A3.6,3.6,0,0,0,7.2,25.2Z"/><path class="cls-99" d="M21.6,25.2A3.6,3.6,0,1,0,18,21.6,3.6,3.6,0,0,0,21.6,25.2Z"/><path class="cls-99" d="M7.2,10.8A3.6,3.6,0,1,0,3.6,7.2,3.6,3.6,0,0,0,7.2,10.8Z"/><path class="cls-99" d="M21.6,10.8A3.6,3.6,0,1,0,18,7.2,3.6,3.6,0,0,0,21.6,10.8Z"/><path class="cls-99" d="M0,32.4a3.6,3.6,0,0,0,0-7.2,3.6,3.6,0,0,0-3.6,3.6A3.6,3.6,0,0,0,0,32.4Z"/><circle class="cls-99" cy="14.4" r="3.6"/><path class="cls-99" d="M28.8,3.6A3.6,3.6,0,0,0,32.4,0a3.6,3.6,0,0,0-3.6-3.6A3.6,3.6,0,0,0,25.2,0,3.6,3.6,0,0,0,28.8,3.6Z"/><path class="cls-99" d="M14.4,3.6A3.6,3.6,0,0,0,18,0a3.6,3.6,0,0,0-3.6-3.6A3.6,3.6,0,0,0,10.8,0,3.6,3.6,0,0,0,14.4,3.6Z"/><path class="cls-99" d="M0,3.6A3.6,3.6,0,0,0,3.6,0,3.6,3.6,0,0,0,0-3.6,3.6,3.6,0,0,0-3.6,0,3.6,3.6,0,0,0,0,3.6Z"/></pattern><clipPath id="clip-path-3"><rect class="cls-1" x="735.91" y="675.15" width="58.59" height="116.85"/></clipPath><pattern id="_6_lpi_50_2" data-name="6 lpi 50% 2" width="72" height="72" patternTransform="matrix(0.7, -1.66, 0.73, 1.72, -76.23, 479.93)" patternUnits="userSpaceOnUse" viewBox="0 0 72 72"><rect class="cls-1" width="72" height="72"/><line class="cls-101" x1="71.75" y1="66" x2="144.25" y2="66"/><line class="cls-101" x1="71.75" y1="42" x2="144.25" y2="42"/><line class="cls-101" x1="71.75" y1="18" x2="144.25" y2="18"/><line class="cls-101" x1="71.75" y1="54" x2="144.25" y2="54"/><line class="cls-101" x1="71.75" y1="30" x2="144.25" y2="30"/><line class="cls-101" x1="71.75" y1="6" x2="144.25" y2="6"/><line class="cls-101" x1="-0.25" y1="66" x2="72.25" y2="66"/><line class="cls-101" x1="-0.25" y1="42" x2="72.25" y2="42"/><line class="cls-101" x1="-0.25" y1="18" x2="72.25" y2="18"/><line class="cls-101" x1="-0.25" y1="54" x2="72.25" y2="54"/><line class="cls-101" x1="-0.25" y1="30" x2="72.25" y2="30"/><line class="cls-101" x1="-0.25" y1="6" x2="72.25" y2="6"/><line class="cls-101" x1="-72.25" y1="66" x2="0.25" y2="66"/><line class="cls-101" x1="-72.25" y1="42" x2="0.25" y2="42"/><line class="cls-101" x1="-72.25" y1="18" x2="0.25" y2="18"/><line class="cls-101" x1="-72.25" y1="54" x2="0.25" y2="54"/><line class="cls-101" x1="-72.25" y1="30" x2="0.25" y2="30"/><line class="cls-101" x1="-72.25" y1="6" x2="0.25" y2="6"/></pattern><clipPath id="clip-path-4"><rect class="cls-1" x="61.52" y="482.91" width="235.13" height="165.35"/></clipPath><pattern id="_6_lpi_50_5" data-name="6 lpi 50% 5" width="72" height="72" patternTransform="translate(142.33 146.74) scale(0.36 0.76)" patternUnits="userSpaceOnUse" viewBox="0 0 72 72"><rect class="cls-1" width="72" height="72"/><line class="cls-104" x1="71.75" y1="66" x2="144.25" y2="66"/><line class="cls-104" x1="71.75" y1="42" x2="144.25" y2="42"/><line class="cls-104" x1="71.75" y1="18" x2="144.25" y2="18"/><line class="cls-104" x1="71.75" y1="54" x2="144.25" y2="54"/><line class="cls-104" x1="71.75" y1="30" x2="144.25" y2="30"/><line class="cls-104" x1="71.75" y1="6" x2="144.25" y2="6"/><line class="cls-104" x1="-0.25" y1="66" x2="72.25" y2="66"/><line class="cls-104" x1="-0.25" y1="42" x2="72.25" y2="42"/><line class="cls-104" x1="-0.25" y1="18" x2="72.25" y2="18"/><line class="cls-104" x1="-0.25" y1="54" x2="72.25" y2="54"/><line class="cls-104" x1="-0.25" y1="30" x2="72.25" y2="30"/><line class="cls-104" x1="-0.25" y1="6" x2="72.25" y2="6"/><line class="cls-104" x1="-72.25" y1="66" x2="0.25" y2="66"/><line class="cls-104" x1="-72.25" y1="42" x2="0.25" y2="42"/><line class="cls-104" x1="-72.25" y1="18" x2="0.25" y2="18"/><line class="cls-104" x1="-72.25" y1="54" x2="0.25" y2="54"/><line class="cls-104" x1="-72.25" y1="30" x2="0.25" y2="30"/><line class="cls-104" x1="-72.25" y1="6" x2="0.25" y2="6"/></pattern><pattern id="_6_dpi_30_2" data-name="6 dpi 30% 2" width="48" height="48" patternUnits="userSpaceOnUse" viewBox="0 0 48 48"><rect class="cls-1" width="48" height="48"/><circle class="cls-99" cx="24" cy="48" r="3.6"/><circle class="cls-99" cx="48" cy="48" r="3.6"/><circle class="cls-99" cx="24" cy="24" r="3.6"/><circle class="cls-99" cx="48" cy="24" r="3.6"/><circle class="cls-99" cx="36" cy="36" r="3.6"/><circle class="cls-99" cx="12" cy="36" r="3.6"/><circle class="cls-99" cx="36" cy="12" r="3.6"/><circle class="cls-99" cx="12" cy="12" r="3.6"/><circle class="cls-99" cy="48" r="3.6"/><circle class="cls-99" cy="24" r="3.6"/><circle class="cls-99" cx="24" r="3.6"/><circle class="cls-99" cx="48" r="3.6"/><circle class="cls-99" r="3.6"/></pattern><pattern id="_6_lpi_50_3" data-name="6 lpi 50% 3" width="72" height="72" patternTransform="translate(68.62 102.9) scale(0.36 0.76)" patternUnits="userSpaceOnUse" viewBox="0 0 72 72"><rect class="cls-1" width="72" height="72"/><line class="cls-102" x1="71.75" y1="66" x2="144.25" y2="66"/><line class="cls-102" x1="71.75" y1="42" x2="144.25" y2="42"/><line class="cls-102" x1="71.75" y1="18" x2="144.25" y2="18"/><line class="cls-102" x1="71.75" y1="54" x2="144.25" y2="54"/><line class="cls-102" x1="71.75" y1="30" x2="144.25" y2="30"/><line class="cls-102" x1="71.75" y1="6" x2="144.25" y2="6"/><line class="cls-102" x1="-0.25" y1="66" x2="72.25" y2="66"/><line class="cls-102" x1="-0.25" y1="42" x2="72.25" y2="42"/><line class="cls-102" x1="-0.25" y1="18" x2="72.25" y2="18"/><line class="cls-102" x1="-0.25" y1="54" x2="72.25" y2="54"/><line class="cls-102" x1="-0.25" y1="30" x2="72.25" y2="30"/><line class="cls-102" x1="-0.25" y1="6" x2="72.25" y2="6"/><line class="cls-102" x1="-72.25" y1="66" x2="0.25" y2="66"/><line class="cls-102" x1="-72.25" y1="42" x2="0.25" y2="42"/><line class="cls-102" x1="-72.25" y1="18" x2="0.25" y2="18"/><line class="cls-102" x1="-72.25" y1="54" x2="0.25" y2="54"/><line class="cls-102" x1="-72.25" y1="30" x2="0.25" y2="30"/><line class="cls-102" x1="-72.25" y1="6" x2="0.25" y2="6"/></pattern><pattern id="_6_lpi_50_4" data-name="6 lpi 50% 4" width="72" height="72" patternTransform="translate(35.92 102.9) scale(0.13 0.76)" patternUnits="userSpaceOnUse" viewBox="0 0 72 72"><rect class="cls-1" width="72" height="72"/><line class="cls-103" x1="71.75" y1="66" x2="144.25" y2="66"/><line class="cls-103" x1="71.75" y1="42" x2="144.25" y2="42"/><line class="cls-103" x1="71.75" y1="18" x2="144.25" y2="18"/><line class="cls-103" x1="71.75" y1="54" x2="144.25" y2="54"/><line class="cls-103" x1="71.75" y1="30" x2="144.25" y2="30"/><line class="cls-103" x1="71.75" y1="6" x2="144.25" y2="6"/><line class="cls-103" x1="-0.25" y1="66" x2="72.25" y2="66"/><line class="cls-103" x1="-0.25" y1="42" x2="72.25" y2="42"/><line class="cls-103" x1="-0.25" y1="18" x2="72.25" y2="18"/><line class="cls-103" x1="-0.25" y1="54" x2="72.25" y2="54"/><line class="cls-103" x1="-0.25" y1="30" x2="72.25" y2="30"/><line class="cls-103" x1="-0.25" y1="6" x2="72.25" y2="6"/><line class="cls-103" x1="-72.25" y1="66" x2="0.25" y2="66"/><line class="cls-103" x1="-72.25" y1="42" x2="0.25" y2="42"/><line class="cls-103" x1="-72.25" y1="18" x2="0.25" y2="18"/><line class="cls-103" x1="-72.25" y1="54" x2="0.25" y2="54"/><line class="cls-103" x1="-72.25" y1="30" x2="0.25" y2="30"/><line class="cls-103" x1="-72.25" y1="6" x2="0.25" y2="6"/></pattern><pattern id="_10_dpi_50_3-11" data-name="10 dpi 50% 3" width="28.8" height="28.8" patternTransform="translate(-9.52 5.95)" patternUnits="userSpaceOnUse" viewBox="0 0 28.8 28.8"><rect class="cls-1" width="28.8" height="28.8"/><path class="cls-99" d="M28.8,32.4a3.6,3.6,0,1,0-3.6-3.6A3.6,3.6,0,0,0,28.8,32.4Z"/><path class="cls-99" d="M14.4,32.4a3.6,3.6,0,1,0-3.6-3.6A3.6,3.6,0,0,0,14.4,32.4Z"/><circle class="cls-99" cx="28.8" cy="14.4" r="3.6"/><path class="cls-99" d="M14.4,18a3.6,3.6,0,1,0-3.6-3.6A3.6,3.6,0,0,0,14.4,18Z"/><path class="cls-99" d="M7.2,25.2a3.6,3.6,0,1,0-3.6-3.6A3.6,3.6,0,0,0,7.2,25.2Z"/><path class="cls-99" d="M21.6,25.2A3.6,3.6,0,1,0,18,21.6,3.6,3.6,0,0,0,21.6,25.2Z"/><path class="cls-99" d="M7.2,10.8A3.6,3.6,0,1,0,3.6,7.2,3.6,3.6,0,0,0,7.2,10.8Z"/><path class="cls-99" d="M21.6,10.8A3.6,3.6,0,1,0,18,7.2,3.6,3.6,0,0,0,21.6,10.8Z"/><path class="cls-99" d="M0,32.4a3.6,3.6,0,0,0,0-7.2,3.6,3.6,0,0,0-3.6,3.6A3.6,3.6,0,0,0,0,32.4Z"/><circle class="cls-99" cy="14.4" r="3.6"/><path class="cls-99" d="M28.8,3.6A3.6,3.6,0,0,0,32.4,0a3.6,3.6,0,0,0-3.6-3.6A3.6,3.6,0,0,0,25.2,0,3.6,3.6,0,0,0,28.8,3.6Z"/><path class="cls-99" d="M14.4,3.6A3.6,3.6,0,0,0,18,0a3.6,3.6,0,0,0-3.6-3.6A3.6,3.6,0,0,0,10.8,0,3.6,3.6,0,0,0,14.4,3.6Z"/><path class="cls-99" d="M0,3.6A3.6,3.6,0,0,0,3.6,0,3.6,3.6,0,0,0,0-3.6,3.6,3.6,0,0,0-3.6,0,3.6,3.6,0,0,0,0,3.6Z"/></pattern><pattern id="_10_dpi_50_2" data-name="10 dpi 50% 2" width="28.8" height="28.8" patternUnits="userSpaceOnUse" viewBox="0 0 28.8 28.8"><rect class="cls-1" width="28.8" height="28.8"/><path class="cls-99" d="M28.8,32.4a3.6,3.6,0,1,0-3.6-3.6A3.6,3.6,0,0,0,28.8,32.4Z"/><path class="cls-99" d="M14.4,32.4a3.6,3.6,0,1,0-3.6-3.6A3.6,3.6,0,0,0,14.4,32.4Z"/><circle class="cls-99" cx="28.8" cy="14.4" r="3.6"/><path class="cls-99" d="M14.4,18a3.6,3.6,0,1,0-3.6-3.6A3.6,3.6,0,0,0,14.4,18Z"/><path class="cls-99" d="M7.2,25.2a3.6,3.6,0,1,0-3.6-3.6A3.6,3.6,0,0,0,7.2,25.2Z"/><path class="cls-99" d="M21.6,25.2A3.6,3.6,0,1,0,18,21.6,3.6,3.6,0,0,0,21.6,25.2Z"/><path class="cls-99" d="M7.2,10.8A3.6,3.6,0,1,0,3.6,7.2,3.6,3.6,0,0,0,7.2,10.8Z"/><path class="cls-99" d="M21.6,10.8A3.6,3.6,0,1,0,18,7.2,3.6,3.6,0,0,0,21.6,10.8Z"/><path class="cls-99" d="M0,32.4a3.6,3.6,0,0,0,0-7.2,3.6,3.6,0,0,0-3.6,3.6A3.6,3.6,0,0,0,0,32.4Z"/><circle class="cls-99" cy="14.4" r="3.6"/><path class="cls-99" d="M28.8,3.6A3.6,3.6,0,0,0,32.4,0a3.6,3.6,0,0,0-3.6-3.6A3.6,3.6,0,0,0,25.2,0,3.6,3.6,0,0,0,28.8,3.6Z"/><path class="cls-99" d="M14.4,3.6A3.6,3.6,0,0,0,18,0a3.6,3.6,0,0,0-3.6-3.6A3.6,3.6,0,0,0,10.8,0,3.6,3.6,0,0,0,14.4,3.6Z"/><path class="cls-99" d="M0,3.6A3.6,3.6,0,0,0,3.6,0,3.6,3.6,0,0,0,0-3.6,3.6,3.6,0,0,0-3.6,0,3.6,3.6,0,0,0,0,3.6Z"/></pattern></defs><title>top</title><g id="レイヤー_4" data-name="レイヤー 4"><rect class="cls-105" width="1366" height="768"/></g><g id="レイヤー_6" data-name="レイヤー 6"><rect class="cls-106" x="-0.01" y="100.73" width="451.96" height="420.19"/></g><g id="レイヤー_7" data-name="レイヤー 7"><rect class="cls-107" x="702" y="513.75" width="243.5" height="197.5"/></g><g id="レイヤー_11" data-name="レイヤー 11"><polygon class="cls-108" points="678.5 193.54 678.5 0 785.5 0 785.5 193.54 678.5 193.54"/></g><g id="レイヤー_3" data-name="レイヤー 3"><polygon class="cls-99" points="960.5 434.5 687 435.5 687 225.5 960.5 224.5 960.5 434.5"/><g class="cls-109"><path class="cls-110" d="M778,665.5a25.5,25.5,0,0,1,51,0"/><path class="cls-110" d="M829,665.5a25.5,25.5,0,0,1,51,0"/><path class="cls-110" d="M880,665.5a25.5,25.5,0,0,1,51,0"/><path class="cls-110" d="M931,665.5a25.5,25.5,0,0,1,51,0"/><path class="cls-110" d="M982,665.5a25.5,25.5,0,0,1,51,0"/><path class="cls-110" d="M1033,665.5a25.5,25.5,0,0,1,51,0"/><path class="cls-110" d="M1084,665.5a25.5,25.5,0,0,1,51,0"/><path class="cls-110" d="M1135,665.5a25.5,25.5,0,0,1,51,0"/><path class="cls-110" d="M778,632.5a25.5,25.5,0,0,1,51,0"/><path class="cls-110" d="M829,632.5a25.5,25.5,0,0,1,51,0"/><path class="cls-110" d="M880,632.5a25.5,25.5,0,0,1,51,0"/><path class="cls-110" d="M931,632.5a25.5,25.5,0,0,1,51,0"/><path class="cls-110" d="M982,632.5a25.5,25.5,0,0,1,51,0"/><path class="cls-110" d="M1033,632.5a25.5,25.5,0,0,1,51,0"/><path class="cls-110" d="M1084,632.5a25.5,25.5,0,0,1,51,0"/><path class="cls-110" d="M1135,632.5a25.5,25.5,0,0,1,51,0"/><path class="cls-110" d="M778,599.5a25.5,25.5,0,0,1,51,0"/><path class="cls-110" d="M829,599.5a25.5,25.5,0,0,1,51,0"/><path class="cls-110" d="M880,599.5a25.5,25.5,0,0,1,51,0"/><path class="cls-110" d="M931,599.5a25.5,25.5,0,0,1,51,0"/><path class="cls-110" d="M982,599.5a25.5,25.5,0,0,1,51,0"/><path class="cls-110" d="M1033,599.5a25.5,25.5,0,0,1,51,0"/><path class="cls-110" d="M1084,599.5a25.5,25.5,0,0,1,51,0"/><path class="cls-110" d="M1135,599.5a25.5,25.5,0,0,1,51,0"/><path class="cls-110" d="M778,566.5a25.5,25.5,0,0,1,51,0"/><path class="cls-110" d="M829,566.5a25.5,25.5,0,0,1,51,0"/><path class="cls-110" d="M880,566.5a25.5,25.5,0,0,1,51,0"/><path class="cls-110" d="M931,566.5a25.5,25.5,0,0,1,51,0"/><path class="cls-110" d="M982,566.5a25.5,25.5,0,0,1,51,0"/><path class="cls-110" d="M1033,566.5a25.5,25.5,0,0,1,51,0"/><path class="cls-110" d="M1084,566.5a25.5,25.5,0,0,1,51,0"/><path class="cls-110" d="M1135,566.5a25.5,25.5,0,0,1,51,0"/><path class="cls-110" d="M778,533.5a25.5,25.5,0,0,1,51,0"/><path class="cls-110" d="M829,533.5a25.5,25.5,0,0,1,51,0"/><path class="cls-110" d="M880,533.5a25.5,25.5,0,0,1,51,0"/><path class="cls-110" d="M931,533.5a25.5,25.5,0,0,1,51,0"/><path class="cls-110" d="M982,533.5a25.5,25.5,0,0,1,51,0"/><path class="cls-110" d="M1033,533.5a25.5,25.5,0,0,1,51,0"/><path class="cls-110" d="M1084,533.5a25.5,25.5,0,0,1,51,0"/><path class="cls-110" d="M1135,533.5a25.5,25.5,0,0,1,51,0"/><path class="cls-110" d="M778,500.5a25.5,25.5,0,0,1,51,0"/><path class="cls-110" d="M829,500.5a25.5,25.5,0,0,1,51,0"/><path class="cls-110" d="M880,500.5a25.5,25.5,0,0,1,51,0"/><path class="cls-110" d="M931,500.5a25.5,25.5,0,0,1,51,0"/><path class="cls-110" d="M982,500.5a25.5,25.5,0,0,1,51,0"/><path class="cls-110" d="M1033,500.5a25.5,25.5,0,0,1,51,0"/><path class="cls-110" d="M1084,500.5a25.5,25.5,0,0,1,51,0"/><path class="cls-110" d="M1135,500.5a25.5,25.5,0,0,1,51,0"/><path class="cls-110" d="M778,467.5a25.5,25.5,0,0,1,51,0"/><path class="cls-110" d="M829,467.5a25.5,25.5,0,0,1,51,0"/><path class="cls-110" d="M880,467.5a25.5,25.5,0,0,1,51,0"/><path class="cls-110" d="M931,467.5a25.5,25.5,0,0,1,51,0"/><path class="cls-110" d="M982,467.5a25.5,25.5,0,0,1,51,0"/><path class="cls-110" d="M1033,467.5a25.5,25.5,0,0,1,51,0"/><path class="cls-110" d="M1084,467.5a25.5,25.5,0,0,1,51,0"/><path class="cls-110" d="M1135,467.5a25.5,25.5,0,0,1,51,0"/><path class="cls-110" d="M778,434.5a25.5,25.5,0,0,1,51,0"/><path class="cls-110" d="M829,434.5a25.5,25.5,0,0,1,51,0"/><path class="cls-110" d="M880,434.5a25.5,25.5,0,0,1,51,0"/><path class="cls-110" d="M931,434.5a25.5,25.5,0,0,1,51,0"/><path class="cls-110" d="M982,434.5a25.5,25.5,0,0,1,51,0"/><path class="cls-110" d="M1033,434.5a25.5,25.5,0,0,1,51,0"/><path class="cls-110" d="M1084,434.5a25.5,25.5,0,0,1,51,0"/><path class="cls-110" d="M1135,434.5a25.5,25.5,0,0,1,51,0"/><path class="cls-110" d="M778,404.5a25.5,25.5,0,0,1,51,0"/><path class="cls-110" d="M829,404.5a25.5,25.5,0,0,1,51,0"/><path class="cls-110" d="M880,404.5a25.5,25.5,0,0,1,51,0"/><path class="cls-110" d="M931,404.5a25.5,25.5,0,0,1,51,0"/><path class="cls-110" d="M982,404.5a25.5,25.5,0,0,1,51,0"/><path class="cls-110" d="M1033,404.5a25.5,25.5,0,0,1,51,0"/><path class="cls-110" d="M1084,404.5a25.5,25.5,0,0,1,51,0"/><path class="cls-110" d="M1135,404.5a25.5,25.5,0,0,1,51,0"/><path class="cls-110" d="M778,371.5a25.5,25.5,0,0,1,51,0"/><path class="cls-110" d="M829,371.5a25.5,25.5,0,0,1,51,0"/><path class="cls-110" d="M880,371.5a25.5,25.5,0,0,1,51,0"/><path class="cls-110" d="M931,371.5a25.5,25.5,0,0,1,51,0"/><path class="cls-110" d="M982,371.5a25.5,25.5,0,0,1,51,0"/><path class="cls-110" d="M1033,371.5a25.5,25.5,0,0,1,51,0"/><path class="cls-110" d="M1084,371.5a25.5,25.5,0,0,1,51,0"/><path class="cls-110" d="M1135,371.5a25.5,25.5,0,0,1,51,0"/><path class="cls-110" d="M778,338.5a25.5,25.5,0,0,1,51,0"/><path class="cls-110" d="M829,338.5a25.5,25.5,0,0,1,51,0"/><path class="cls-110" d="M880,338.5a25.5,25.5,0,0,1,51,0"/><path class="cls-110" d="M931,338.5a25.5,25.5,0,0,1,51,0"/><path class="cls-110" d="M982,338.5a25.5,25.5,0,0,1,51,0"/><path class="cls-110" d="M1033,338.5a25.5,25.5,0,0,1,51,0"/><path class="cls-110" d="M1084,338.5a25.5,25.5,0,0,1,51,0"/><path class="cls-110" d="M1135,338.5a25.5,25.5,0,0,1,51,0"/><path class="cls-110" d="M778,305.5a25.5,25.5,0,0,1,51,0"/><path class="cls-110" d="M829,305.5a25.5,25.5,0,0,1,51,0"/><path class="cls-110" d="M880,305.5a25.5,25.5,0,0,1,51,0"/><path class="cls-110" d="M931,305.5a25.5,25.5,0,0,1,51,0"/><path class="cls-110" d="M982,305.5a25.5,25.5,0,0,1,51,0"/><path class="cls-110" d="M1033,305.5a25.5,25.5,0,0,1,51,0"/><path class="cls-110" d="M1084,305.5a25.5,25.5,0,0,1,51,0"/><path class="cls-110" d="M1135,305.5a25.5,25.5,0,0,1,51,0"/><path class="cls-110" d="M778,272.5a25.5,25.5,0,0,1,51,0"/><path class="cls-110" d="M829,272.5a25.5,25.5,0,0,1,51,0"/><path class="cls-110" d="M880,272.5a25.5,25.5,0,0,1,51,0"/><path class="cls-110" d="M931,272.5a25.5,25.5,0,0,1,51,0"/><path class="cls-110" d="M982,272.5a25.5,25.5,0,0,1,51,0"/><path class="cls-110" d="M1033,272.5a25.5,25.5,0,0,1,51,0"/><path class="cls-110" d="M1084,272.5a25.5,25.5,0,0,1,51,0"/><path class="cls-110" d="M1135,272.5a25.5,25.5,0,0,1,51,0"/><path class="cls-110" d="M778,239.5a25.5,25.5,0,0,1,51,0"/><path class="cls-110" d="M829,239.5a25.5,25.5,0,0,1,51,0"/><path class="cls-110" d="M880,239.5a25.5,25.5,0,0,1,51,0"/><path class="cls-110" d="M931,239.5a25.5,25.5,0,0,1,51,0"/><path class="cls-110" d="M982,239.5a25.5,25.5,0,0,1,51,0"/><path class="cls-110" d="M1033,239.5a25.5,25.5,0,0,1,51,0"/><path class="cls-110" d="M1084,239.5a25.5,25.5,0,0,1,51,0"/><path class="cls-110" d="M1135,239.5a25.5,25.5,0,0,1,51,0"/><path class="cls-110" d="M778,206.5a25.5,25.5,0,0,1,51,0"/><path class="cls-110" d="M829,206.5a25.5,25.5,0,0,1,51,0"/><path class="cls-110" d="M880,206.5a25.5,25.5,0,0,1,51,0"/><path class="cls-110" d="M931,206.5a25.5,25.5,0,0,1,51,0"/><path class="cls-110" d="M982,206.5a25.5,25.5,0,0,1,51,0"/><path class="cls-110" d="M1033,206.5a25.5,25.5,0,0,1,51,0"/><path class="cls-110" d="M1084,206.5a25.5,25.5,0,0,1,51,0"/><path class="cls-110" d="M1135,206.5a25.5,25.5,0,0,1,51,0"/><path class="cls-110" d="M778,173.5a25.5,25.5,0,0,1,51,0"/><path class="cls-110" d="M829,173.5a25.5,25.5,0,0,1,51,0"/><path class="cls-110" d="M880,173.5a25.5,25.5,0,0,1,51,0"/><path class="cls-110" d="M931,173.5a25.5,25.5,0,0,1,51,0"/><path class="cls-110" d="M982,173.5a25.5,25.5,0,0,1,51,0"/><path class="cls-110" d="M1033,173.5a25.5,25.5,0,0,1,51,0"/><path class="cls-110" d="M1084,173.5a25.5,25.5,0,0,1,51,0"/><path class="cls-110" d="M1135,173.5a25.5,25.5,0,0,1,51,0"/></g></g><g id="レイヤー_8" data-name="レイヤー 8"><rect class="cls-111" x="306" y="65" width="340" height="159.5"/><path class="cls-112" d="M1027.09,168.48c-1.66,1-19.46.88-34.15.55-10.93-.24-19.69-11.39-19.69-25.05h0c0-25.61-16.61-46.37-37.1-46.37H714.09"/><path class="cls-99" d="M712.91,98.15l-32-41C709,64.4,719.91,71,712.91,98.15Z"/><path class="cls-113" d="M680.91,57.15c28.08,7.25,39,13.89,32,41C684.91,98.15,680.91,86.15,680.91,57.15Z"/><path class="cls-99" d="M771.59,96.27,733.1,47C766.87,55.68,780,63.66,771.59,96.27Z"/><path class="cls-113" d="M733.1,47c33.77,8.73,46.91,16.71,38.49,49.32C737.91,96.27,733.1,81.84,733.1,47Z"/><path class="cls-99" d="M841.55,97.86,803.06,48.54C836.84,57.26,850,65.25,841.55,97.86Z"/><path class="cls-113" d="M803.06,48.54c33.78,8.72,46.91,16.71,38.49,49.32C807.87,97.86,803.06,83.42,803.06,48.54Z"/><path class="cls-99" d="M911.52,96.27,873,47C906.8,55.68,919.94,63.66,911.52,96.27Z"/><path class="cls-113" d="M873,47c33.77,8.73,46.91,16.71,38.49,49.32C877.84,96.27,873,81.84,873,47Z"/><path class="cls-99" d="M911.52,97.86,873,147.17C906.8,138.45,919.94,130.47,911.52,97.86Z"/><path class="cls-113" d="M873,147.17c33.77-8.72,46.91-16.7,38.49-49.31C877.84,97.86,873,112.29,873,147.17Z"/><path class="cls-99" d="M841.55,97.86l-38.49,49.31C836.84,138.45,850,130.47,841.55,97.86Z"/><path class="cls-113" d="M803.06,147.17c33.78-8.72,46.91-16.7,38.49-49.31C807.87,97.86,803.06,112.29,803.06,147.17Z"/><path class="cls-99" d="M771.59,97.86,733.1,147.17C766.87,138.45,780,130.47,771.59,97.86Z"/><path class="cls-113" d="M733.1,147.17c33.77-8.72,46.91-16.7,38.49-49.31C737.91,97.86,733.1,112.29,733.1,147.17Z"/><rect class="cls-114" x="306" y="65" width="340" height="159.5"/></g><g id="レイヤー_5のコピー" data-name="レイヤー 5のコピー"><polyline class="cls-115" points="653 267 674.56 284 674.56 299"/><polyline class="cls-115" points="696.5 267 674.94 284 674.94 299"/><g class="cls-116"><polyline class="cls-117" points="653 267 674.56 284 674.56 299"/><polyline class="cls-117" points="696.5 267 674.94 284 674.94 299"/></g><polyline class="cls-115" points="582 267.5 522.5 267.5 522.5 282 522.5 299.5"/><line class="cls-115" x1="544.5" y1="283.5" x2="522.5" y2="283.5"/><polyline class="cls-115" points="633.5 302 633 271 615.5 290.5 600 271 600.5 286.5"/><polyline class="cls-117" points="722.5 300 722.5 272 746.5 308.5 785.5 269 785.5 301"/></g><g id="レイヤー_12" data-name="レイヤー 12"><text class="cls-118" transform="translate(700 381.86)">Momoko Fujii<tspan x="0" y="36">PORTFOLIO</tspan></text><text class="cls-119" transform="translate(683.75 464.58)">PORT-<tspan x="0" y="36.75">FOLIO</tspan></text><path class="cls-106" d="M559.49,444.45c6.42-5.7,14-10.29,25.32,0C572.15,454.75,559.49,444.45,559.49,444.45Z"/><path class="cls-106" d="M596,444.45c6.42-5.7,14-10.29,25.32,0C608.66,454.75,596,444.45,596,444.45Z"/><path class="cls-107" d="M609.94,416.22c-14.21,39.49-40,7.54-36-1.44Z"/><path class="cls-107" d="M655.25,626.38h24.46V545.1h8a20.64,20.64,0,0,1,20.65,20.65H695.7V640h-42"/><path class="cls-120" d="M681,588.25V545.86h8a20.66,20.66,0,0,1,20.65,20.66H697v27.16"/><path class="cls-107" d="M641.38,510C616.51,544.63,605,589.49,603.1,614.06c-.74,8.9-2.87,58.27-2.87,58.27s-17.92,13-3.88,13.93,20.24,0,20.24,0v-.11c12.44-26.88,23.33-25.37,30.86-17.88l-.41.42c19.19-88.15,9.5-136.63-.3-164.77Z"/><path class="cls-121" d="M656.85,551.13a199.13,199.13,0,0,0-10.11-47.21L641.38,510c-11.66,16.24-20.39,34.73-26.56,52.32"/><path class="cls-121" d="M658,581a272.3,272.3,0,0,0-1.19-29.86"/><path class="cls-107" d="M542.83,510c24.87,34.65,36.42,79.51,38.28,104.08.74,8.9,2.87,58.27,2.87,58.27s17.92,13,3.88,13.93-20.24,0-20.24,0v-.11c-12.44-26.88-23.33-25.37-30.86-17.88l.41.42c-19.19-88.15-9.5-136.63.3-164.77Z"/><path class="cls-122" d="M527.45,550.19a199.32,199.32,0,0,1,10-46.27l5.36,6.06c11.66,16.24,20.39,34.73,26.57,52.32"/><path class="cls-122" d="M526.17,581a272.44,272.44,0,0,1,1.28-30.8"/><path class="cls-99" d="M574.93,688a66.84,66.84,0,0,1-8.92-.44l-.94-.15L551.36,615.2l2.62-.49,13.35,70.36a122.45,122.45,0,0,0,19-.12c2.34-.16,3.87-.71,4.09-1.47.43-1.51-2.76-5.77-8.67-10.05l-.52-.38,0-.65c0-.49-2-49.44-2.76-58.21l2.65-.22c.69,8.27,2.51,51.87,2.75,57.69,2.62,2,10.38,8.22,9.14,12.55-.87,3-5.09,3.31-6.47,3.4C581.81,687.93,578,688,574.93,688Z"/><path class="cls-99" d="M521.65,688.73l.94-2.69c.17-.49,4.3-12.15,11.34-19.16l2.82,2.83c-4.46,4.43-7.73,11.22-9.32,14.95l38.75-.49.05,4Z"/><path class="cls-99" d="M565,686.73c-6.16-13.3-12.37-20.6-18.45-21.69-3.4-.61-6.86.8-10.27,4.2l-1.88-1.89c4.07-4,8.31-5.7,12.62-4.93,7,1.25,13.85,9.05,20.4,23.19Z"/><rect class="cls-99" x="534.03" y="680.44" width="9.09" height="2.67" transform="translate(-255.57 1034.22) rotate(-75.62)"/><rect class="cls-99" x="549.37" y="676.95" width="2.67" height="9.65" transform="translate(-230.76 285.04) rotate(-24.15)"/><path class="cls-99" d="M649.73,669.13l-3.9-.85c10.17-46.72,13.28-87.7,9.25-121.78-3.36-28.45-11-46.52-16-58.48-3-7.13-5.16-12.27-5.16-16.52,0-13.66-11.28-64.11-15.69-83.33l-8.44,29.36H573.73l-8.44-29.36c-4.42,19.22-15.69,69.67-15.69,83.33,0,4.25-2.17,9.39-5.16,16.52-5,12-12.62,30-16,58.48-4,34.08-.91,75.06,9.26,121.78l-3.91.85C523.54,622,520.4,580.55,524.48,546c3.43-29,11.16-47.4,16.27-59.56,2.82-6.69,4.85-11.53,4.85-15,0-17.36,16.82-88.71,17.53-91.74l1.76-7.43,11.85,41.2H606.8l11.84-41.2,1.76,7.43c.72,3,17.54,74.38,17.54,91.74,0,3.44,2,8.28,4.84,15C647.9,498.63,655.62,517,659.05,546,663.13,580.55,660,622,649.73,669.13Z"/><path class="cls-99" d="M608.61,688c-3,0-6.88-.11-11.61-.43-1.39-.09-5.61-.38-6.47-3.4-1.25-4.34,6.52-10.59,9.14-12.55.25-5.82,2.16-49.42,2.85-57.69l2.65.22c-.73,8.77-2.84,57.72-2.86,58.22l0,.64-.52.38c-4.6,3.33-9.22,8.12-8.67,10.05.22.76,1.75,1.31,4.09,1.47a122.31,122.31,0,0,0,19,.12l13.35-70.36,2.62.49-13.71,72.25-.93.15A66.84,66.84,0,0,1,608.61,688Z"/><path class="cls-99" d="M661.42,688.39l-46.68-.58,1.08-2.34c7.42-16,15.28-24,23.3-23.55,13.13.64,21.18,23.27,21.51,24.23ZM620,684.54l36.66.46a65.41,65.41,0,0,0-4.45-8.82c-3-4.84-7.67-10.67-13.21-10.94C632.87,665,626.3,671.61,620,684.54Z"/><rect class="cls-99" x="643.63" y="677.23" width="2.67" height="9.09" transform="translate(-149.06 181.46) rotate(-14.37)"/><rect class="cls-99" x="628.01" y="680.44" width="9.65" height="2.67" transform="translate(-248.17 980.29) rotate(-65.85)"/><rect class="cls-99" x="566.21" y="684.17" width="51.12" height="4"/><path class="cls-99" d="M572.89,450.34a24.64,24.64,0,0,1-14-4.85l-1.22-1,1.17-1.05c7.12-6.32,15.32-10.7,27.1,0l1.15,1-1.2,1A20.12,20.12,0,0,1,572.89,450.34Zm-11-6c3.25,2.08,12,6.4,21,0C573.59,436.63,567.33,439.75,561.85,444.35Z"/><rect class="cls-99" x="566.91" y="441.68" width="10.68" height="4" transform="translate(117.93 1007.52) rotate(-88.93)"/><path class="cls-99" d="M609.2,450.44a24.64,24.64,0,0,1-14-4.85l-1.21-1,1.17-1.05c7.11-6.32,15.32-10.7,27.1,0l1.14,1.05-1.2,1A20.12,20.12,0,0,1,609.2,450.44Zm-11-6c3.25,2.08,12,6.4,21.05,0C609.9,436.73,603.64,439.85,598.16,444.45Z"/><rect class="cls-99" x="606.66" y="439.21" width="4" height="9.92"/><polygon class="cls-99" points="584.29 473.86 582.87 471.61 589.64 467.33 589.64 453.51 592.31 453.51 592.31 468.81 584.29 473.86"/><rect class="cls-99" x="593.11" y="466.23" width="2.67" height="8.35" transform="translate(-127.77 700.74) rotate(-56.04)"/><polygon class="cls-99" points="590.98 460.42 587.14 453.51 594.82 453.51 590.98 460.42"/><rect class="cls-99" x="529.52" y="447.14" width="19.21" height="4"/><rect class="cls-99" x="529.52" y="458.42" width="19.21" height="4"/><rect class="cls-99" x="634.46" y="447.14" width="19.21" height="4"/><rect class="cls-99" x="634.46" y="458.42" width="19.21" height="4"/><path class="cls-99" d="M697.7,642.38h-44v-4h40.05V564.11h12.55a18.69,18.69,0,0,0-18.55-16.66h-6v81.28H655.25v-4h22.47V543.45h10a22.67,22.67,0,0,1,22.65,22.65v2H697.7Z"/></g><g id="レイヤー_14" data-name="レイヤー 14"><rect class="cls-105" x="722.7" y="661.9" width="85" height="71.76"/><g class="cls-123"><polygon class="cls-124" points="821.06 724.76 761.47 865.51 709.35 742.39 768.93 601.64 821.06 724.76"/></g><g class="cls-125"><polygon class="cls-99" points="81.44 695.25 76.77 687.08 115.52 664.96 69.61 638.75 115.52 612.54 69.61 586.34 115.52 560.13 69.61 533.93 115.52 507.72 69.61 481.52 115.52 455.31 69.61 429.11 122.68 398.81 127.35 406.99 88.61 429.11 134.51 455.31 88.61 481.52 134.51 507.72 88.61 533.93 134.51 560.13 88.61 586.34 134.51 612.54 88.61 638.75 134.51 664.96 81.44 695.25"/><polygon class="cls-99" points="135.14 695.25 130.47 687.08 169.22 664.96 123.31 638.75 169.22 612.54 123.31 586.34 169.22 560.13 123.31 533.93 169.22 507.72 123.31 481.52 169.22 455.31 123.31 429.11 176.38 398.81 181.05 406.99 142.3 429.11 188.21 455.31 142.3 481.52 188.21 507.72 142.3 533.93 188.21 560.13 142.3 586.34 188.21 612.54 142.3 638.75 188.21 664.96 135.14 695.25"/><polygon class="cls-99" points="188.84 695.25 184.17 687.08 222.91 664.96 177 638.75 222.91 612.54 177 586.34 222.91 560.13 177 533.93 222.91 507.72 177 481.52 222.91 455.31 177 429.11 230.08 398.81 234.74 406.99 196 429.11 241.91 455.31 196 481.52 241.91 507.72 196 533.93 241.91 560.13 196 586.34 241.91 612.54 196 638.75 241.91 664.96 188.84 695.25"/><polygon class="cls-99" points="242.53 695.25 237.87 687.08 276.61 664.96 230.7 638.75 276.61 612.54 230.7 586.34 276.61 560.13 230.7 533.93 276.61 507.72 230.7 481.52 276.61 455.31 230.7 429.11 283.77 398.81 288.44 406.99 249.7 429.11 295.61 455.31 249.7 481.52 295.61 507.72 249.7 533.93 295.61 560.13 249.7 586.34 295.61 612.54 249.7 638.75 295.6 664.96 242.53 695.25"/></g><rect class="cls-126" x="1094.67" y="299" width="409.33" height="106"/></g><g id="レイヤー_5" data-name="レイヤー 5"><rect class="cls-127" x="1291.63" y="420.47" width="97.63" height="124.9"/><rect class="cls-106" x="1051.03" y="122.52" width="56.61" height="115"/><path class="cls-105" d="M164.82,249.16h29c16.79,0,32.64,6.89,42.32,18.67a60.4,60.4,0,0,1,13.7,31.95c4,35.61-31,91.38-34,91.38-2.24,0-12.24-12.37-20.5-25.07-5.11-7.85-14.8-12.68-25.27-12.68H141.89c-10.48,0-20.17,4.83-25.27,12.68-8.27,12.7-18.27,25.07-20.5,25.07-3,0-38-55.77-34-91.38a60.24,60.24,0,0,1,13.7-31.95c9.68-11.78,25.53-18.67,42.32-18.67h46.68Z"/><g class="cls-116"><polyline class="cls-128" points="653 267 674.56 284 674.56 299"/><polyline class="cls-128" points="696.5 267 674.94 284 674.94 299"/></g><polyline class="cls-128" points="722.5 300 722.5 272 746.5 308.5 785.5 269 785.5 301"/><path class="cls-112" d="M152.27,246.92h29c16.79,0,32.64,6.89,42.32,18.66a60.39,60.39,0,0,1,13.7,32c4,35.61-31,91.38-34,91.38-2.23,0-12.23-12.38-20.5-25.08-5.1-7.84-14.79-12.67-25.27-12.67H129.34c-10.47,0-20.16,4.83-25.27,12.67-8.26,12.7-18.27,25.08-20.5,25.08-3,0-38-55.77-34-91.38a60.47,60.47,0,0,1,13.7-32c9.68-11.77,25.53-18.66,42.32-18.66h46.68Z"/><path class="cls-111" d="M143.42,246.92V207c0-21.8,16.71-39.46,37.32-39.46h0c25.15,0,45.53-21.57,45.53-48.16V47"/><circle class="cls-129" cx="201.77" cy="292.34" r="11.5"/><circle class="cls-130" cx="173.65" cy="321.46" r="11.5"/><line class="cls-131" x1="92.27" y1="283.84" x2="92.27" y2="321.34"/><line class="cls-131" x1="111.02" y1="302.59" x2="73.52" y2="302.59"/><rect class="cls-132" x="246.41" y="595.3" width="153.59" height="137.7"/><rect class="cls-133" x="360.34" y="321.55" width="97.63" height="124.9"/><rect class="cls-134" x="451.95" y="321.55" width="34.29" height="124.9"/><path class="cls-115" d="M1144.47,495.46h69.33c18.67,0,22,41.33,0,41.33v110h-38.67s-39.33.67-66.66,0v-110c-22,0-18.67-41.33,0-41.33h69.33"/><path class="cls-115" d="M1107.65,646.79C1127.72,664.77,1188,728,1188,728h103.6s-57.48-63.19-77.83-81.17"/><path class="cls-115" d="M1225,501.93c22.36,19.83,89.52,89.51,89.52,89.51"/><path class="cls-115" d="M1309.45,586.46c12.84,7.91,13,39.55-6.26,39.55l1.51-.07h-10.82v103.6"/><path class="cls-99" d="M1310,586.81l0,0c2,2.11,3.45,3.57,4.08,4.22v0c7.6,11.26,5.74,33.56-9.48,34.87h-10.75V728h-2.25s-57.48-63.19-77.83-81.17v-110c16.46,0,18.74-23.13,11-34.78l.12-.08C1243.82,518.67,1294.62,570.93,1310,586.81Z"/><path class="cls-135" d="M1291.63,728H1188s-59.43-62.26-79.93-80.76l.37-.41c27.33.67,66.66,0,66.66,0h38.67C1234.15,664.77,1291.63,728,1291.63,728Z"/><path class="cls-112" d="M1144.47,495.46h69.33c4.71,0,8.44,2.62,11,6.55,7.71,11.65,5.43,34.78-11,34.78v110h-38.67s-39.33.67-66.66,0v-110c-22,0-18.67-41.33,0-41.33h36"/><path class="cls-112" d="M1107.65,646.79l.45.41C1128.6,665.7,1188,728,1188,728h103.6s-57.48-63.19-77.83-81.17"/><path class="cls-112" d="M1314.11,591.07l.36.37"/><path class="cls-112" d="M1310,586.83c2,2.11,3.45,3.57,4.08,4.22"/><path class="cls-112" d="M1225,501.93c18.87,16.74,69.67,69,85,84.88"/><polyline class="cls-112" points="1304.7 625.94 1304.63 625.94 1293.88 625.94 1293.88 626.01 1293.88 727.96 1293.88 729.54"/><path class="cls-112" d="M1304.55,626c-.44,0-.9.06-1.36.06Z"/><line class="cls-112" x1="1304.55" y1="625.95" x2="1304.63" y2="625.94"/><path class="cls-112" d="M1309.45,586.46l.54.35,0,0a16.11,16.11,0,0,1,4.08,4.22v0c7.6,11.26,5.74,33.56-9.48,34.87"/><rect class="cls-107" x="1205.79" y="-33" width="176.17" height="280.16"/><rect class="cls-136" x="1138.36" y="57.15" width="67.43" height="95.59"/><rect class="cls-105" x="1205.79" y="57.15" width="106.57" height="95.59"/><rect class="cls-111" x="1138.36" y="57.15" width="174.01" height="95.59"/></g></svg>